<svg id="Слой_1" xmlns="http://www.w3.org/2000/svg" viewBox="0 0 75.3 74.6"><style>.st0{fill:#cec09e}.st1{fill:none}</style><path id="XMLID_283_" class="st0" d="M41.5 249.4H16.4c-7.2 0-12.4-5.2-12.4-12.3v-49.8c0-7.1 5.2-12.3 12.4-12.3 16.8 0 33.6.1 50.4 0 6.7 0 12.4 5.1 12.4 12.6.1 16.5.1 32.9 0 49.4 0 7.5-5.7 12.7-12.4 12.6-8.5-.3-16.9-.2-25.3-.2zm-20.2-49.9h-3c-2.1.1-2.5.6-1.7 2.5 2.6 6 5.8 11.7 9.8 16.9 4.3 5.6 9.8 8.4 16.9 7.9 1.4-.1 2.2-.5 2.4-2 .1-1 .2-2 .6-2.9.6-1.7 1.9-2 3.3-.8 1 .9 1.9 1.8 2.7 2.9 1.8 2.2 4 3.4 6.9 3.1 1.8-.1 3.7-.2 5.5-.3 2.2-.2 2.7-1.3 1.5-3.2-1.1-1.7-2.5-3.3-4-4.6-4.6-4.1-4.6-4.1-.8-9.1 1.9-2.5 4-4.9 5.2-7.9.6-1.7.2-2.4-1.6-2.4-2.4-.1-4.7.1-7.1 0-1.8-.1-2.8.5-3.4 2.2-1.1 3-2.7 5.7-4.6 8.2-.7 1-1.5 2.4-2.9 2-1.5-.4-1.3-2.1-1.3-3.4 0-2.2.2-4.3.3-6.5.1-2.9-.7-3.7-3.5-3.8-1.9-.1-3.8 0-5.7 0-.9 0-1.7.2-2.5.6-.9.5-1.3 1 0 1.5 1.2.5 1.7 1.5 1.8 2.6.3 2.4.3 4.7 0 7.1-.1.8-.3 1.8-1.2 2.1-1.1.3-1.7-.6-2.2-1.3-1.9-2.4-3.6-4.9-4.6-7.8-1.1-3.1-2.9-4.1-6-3.6-.4.1-.6 0-.8 0z"/><path class="st1" d="M37.5 50.6c1.5 0 2.9-.2 4.2-.6 1.8-.6 3.5-1.5 5-2.7 3-2.6 4.9-6.4 4.9-10.7 0-2.8-.8-5.3-2.1-7.5-2.4-3.9-6.7-6.4-11.8-6.4-1.7 0-3.4.3-4.9.8-1.2.4-2.4 1-3.4 1.7-2 1.4-3.5 3.2-4.6 5.4-.8 1.8-1.3 3.8-1.3 5.9.1 7.6 6.3 14 14 14.1zm-9.2-14.7c.2-2.8 1.6-5.2 3.7-6.8 1.6-1.2 3.5-1.8 5.7-1.8 1.5 0 2.8.4 4.1 1 2.3 1.2 4 3.2 4.7 5.7.2.8.3 1.6.3 2.5 0 5.1-4.2 9.2-9.4 9.1-5.1 0-9.3-4.2-9.2-9.2.1-.1.1-.3.1-.5zM51.9 25h.5c.5 0 .9-.1 1.3-.3 1.1-.5 1.7-1.6 1.7-2.9 0-1.8-1.5-3.1-3.2-3-1.7 0-3.2 1.5-3.2 3.1.1 1.7 1.3 2.9 2.9 3.1z"/><path class="st1" d="M10.5 50c.6 6.9 5.2 12.1 12 13.3 4.9.9 9.9.2 14.8.4 4 0 8 .1 12 0 8.6-.2 14.3-5.2 15.2-13.6.9-8.6.7-17.3.2-25.8-.6-9.1-5.2-13.9-14.1-14.7-8.7-.8-17.5-.8-26.2 0-8.2.7-13.3 6-13.9 13.5-.6 8.9-.7 17.9 0 26.9zm4.4-18c0-2 .1-3.9.2-5.9 0-.5.1-1 .1-1.4.7-7.1 3.7-10.2 11.2-10.6 8.1-.4 16.2-.6 24.3.2 5.2.5 8.5 3.8 9.2 9 .1.5.1.9.2 1.4.2 2.1.3 4.3.2 6.5v.4c-.1 4.9.2 9.7-.1 14.6-.1.9-.1 1.9-.2 2.8-.1 1-.3 2-.6 3-1.4 4.5-4.9 6.8-10.3 7-3.8.1-7.6 0-11.5 0-3.7 0-7.4.1-11.1 0-7.4-.3-11.1-4.2-11.4-11.6-.2-5.1-.3-10.3-.2-15.4z"/><path class="st0" d="M75.2 12.6C75.2 5.1 69.5 0 62.8 0h-.7C45.8.1 29.6 0 13.4 0h-1C5.2 0 0 5.2 0 12.4v49.8c0 7.1 5.2 12.3 12.4 12.3h25.1c8.4 0 16.9-.1 25.3 0 6.7.1 12.4-5.1 12.4-12.6.1-16.4.1-32.9 0-49.3zM24.4 9.5c8.7-.8 17.5-.8 26.2 0 8.8.8 13.5 5.7 14.1 14.7.6 8.6.7 17.3-.2 25.8-.9 8.4-6.6 13.4-15.2 13.6-4 .1-8 0-12 0-4.9-.1-9.9.6-14.8-.4-6.8-1.3-11.5-6.4-12-13.3-.7-9-.6-18 0-27 .6-7.3 5.7-12.6 13.9-13.4z"/><path class="st0" d="M26.5 59c3.7.1 7.4 0 11.1 0 3.8 0 7.6.1 11.5 0 5.5-.2 8.9-2.5 10.3-7 .3-.9.5-1.9.6-3.1.1-.9.2-1.9.2-2.8.3-4.9 0-9.7.1-14.6v-.4c0-2.2 0-4.3-.2-6.5 0-.5-.1-.9-.2-1.4-.7-5.2-4-8.5-9.2-9-8.1-.8-16.2-.6-24.3-.2-7.5.4-10.5 3.5-11.2 10.6 0 .5-.1.9-.1 1.4-.1 2-.2 4-.2 6-.1 5.1 0 10.3.2 15.4.3 7.4 4 11.3 11.4 11.6zm25.7-40.2c1.8 0 3.2 1.3 3.2 3 0 1.3-.6 2.4-1.7 2.9-.4.2-.8.3-1.3.3h-.5c-1.7-.1-2.9-1.4-2.9-3 0-1.7 1.5-3.2 3.2-3.2zM24.9 30.6c1-2.2 2.6-4.1 4.6-5.4 1-.7 2.2-1.3 3.4-1.7 1.5-.5 3.2-.8 4.9-.8 5.1 0 9.4 2.5 11.8 6.4 1.3 2.1 2.1 4.7 2.1 7.5 0 4.3-1.9 8.2-4.9 10.7-1.4 1.2-3.1 2.2-5 2.7-1.3.4-2.7.6-4.2.6-7.6-.1-13.9-6.4-13.9-14.1-.1-2.1.3-4.1 1.2-5.9z"/><path class="st0" d="M37.5 45.7c5.2 0 9.4-4 9.4-9.1 0-.9-.1-1.7-.3-2.5-.7-2.5-2.4-4.6-4.7-5.7-1.2-.6-2.6-1-4.1-1-2.2 0-4.1.7-5.7 1.8-2.1 1.5-3.5 4-3.7 6.8v.6c-.2 4.8 4 9 9.1 9.1z"/></svg>