<svg xmlns="http://www.w3.org/2000/svg" viewBox="0 0 75.3 74.6"><path d="M37.5 74.5H12.4C5.2 74.5 0 69.3 0 62.2V12.4C0 5.2 5.2 0 12.4 0 29.2 0 46 .1 62.8 0c6.7 0 12.4 5.1 12.4 12.6.1 16.5.1 32.9 0 49.4 0 7.5-5.7 12.7-12.4 12.6-8.4-.2-16.9-.1-25.3-.1zM17.3 24.7h-3c-2.1.1-2.5.6-1.7 2.5 2.6 6 5.8 11.7 9.8 16.9 4.3 5.6 9.8 8.4 16.9 7.9 1.4-.1 2.2-.5 2.4-2 .1-1 .2-2 .6-2.9.6-1.7 1.9-2 3.3-.8 1 .9 1.9 1.8 2.7 2.9 1.8 2.2 4 3.4 6.9 3.1 1.8-.1 3.7-.2 5.5-.3 2.2-.2 2.7-1.3 1.5-3.2-1.1-1.7-2.5-3.3-4-4.6-4.6-4.2-4.6-4.2-.9-9.2 1.9-2.5 4-4.9 5.2-7.9.6-1.7.2-2.4-1.6-2.4-2.4-.1-4.7.1-7.1 0-1.8-.1-2.8.5-3.4 2.2-1.1 3-2.7 5.7-4.6 8.2-.7 1-1.5 2.4-2.9 2-1.5-.4-1.3-2.1-1.3-3.4 0-2.2.2-4.3.3-6.5.1-2.9-.7-3.7-3.5-3.8-1.9-.1-3.8 0-5.7 0-.9 0-1.7.2-2.5.6-.9.5-1.3 1 0 1.5 1.2.5 1.7 1.5 1.8 2.6.3 2.4.3 4.7 0 7.1-.1.8-.3 1.8-1.2 2.1-1.1.3-1.7-.6-2.2-1.3-1.9-2.4-3.6-4.9-4.6-7.8-1.1-3.1-2.9-4.1-6-3.6-.3.1-.5.1-.7.1z" fill="#cec09e"/></svg>