<svg xmlns="http://www.w3.org/2000/svg" viewBox="0 0 31.15 31.15"><defs><style>.cls-1{fill:#c15a94}</style></defs><g id="Слой_2" data-name="Слой 2"><g id="Слой_7" data-name="Слой 7"><path class="cls-1" d="M15.57 0a15.58 15.58 0 1 0 15.58 15.57A15.59 15.59 0 0 0 15.57 0zm0 29.42a13.85 13.85 0 1 1 13.85-13.85 13.85 13.85 0 0 1-13.85 13.85z"/><path class="cls-1" d="M15.57 3.46a12.12 12.12 0 1 0 12.12 12.11A12.12 12.12 0 0 0 15.57 3.46zm5.2 13h-5.2a.86.86 0 0 1-.86-.87V6.92a.87.87 0 0 1 1.73 0v7.79h4.33a.87.87 0 0 1 0 1.73z"/></g></g></svg>