<svg xmlns="http://www.w3.org/2000/svg" viewBox="0 0 23.62 36.33"><defs><style>.cls-1{fill:#c15a94}</style></defs><g id="Слой_2" data-name="Слой 2"><g id="Слой_7" data-name="Слой 7"><path class="cls-1" d="M11.81 14.53a4.09 4.09 0 1 0-4.09-4.08 4.07 4.07 0 0 0 4.09 4.08z"/><path class="cls-1" d="M11 31.66a1 1 0 0 0 1.64 0c2.68-3.41 11-14.4 11-19.85a11.81 11.81 0 0 0-23.64 0c0 5.45 8.31 16.44 11 19.85zm.82-27.12a5.91 5.91 0 1 1-5.92 5.91 5.89 5.89 0 0 1 5.91-5.91z"/><path class="cls-1" d="M21.94 34.83l-2-5.49a1.07 1.07 0 0 0-1-.73h-1.73c-.91 1.27-2 2.64-3.09 4.14a3 3 0 0 1-1.81 1.13 2.86 2.86 0 0 1-2.73-1C8.4 31.34 7.36 30 6.4 28.66H4.68a1.15 1.15 0 0 0-1 .72l-1.95 5.5a1.09 1.09 0 0 0 1.05 1.45h18.11a1.12 1.12 0 0 0 1.05-1.5z"/></g></g></svg>