<svg xmlns="http://www.w3.org/2000/svg" viewBox="0 0 160 160"><defs><style>.cls-1{fill:#d5c29f}.cls-2{fill:#fff}.cls-3{fill:#604051}.cls-4{fill:#bd5a90}.cls-5{fill:none;stroke:#bd5a90;stroke-linecap:round;stroke-miterlimit:10;stroke-width:2px}.cls-6{fill:#804d72}</style></defs><g id="Слой_2" data-name="Слой 2"><g id="_3._профессионализм" data-name="3. профессионализм"><circle class="cls-1" cx="80" cy="80" r="80"/><circle class="cls-1" cx="80" cy="80" r="80"/><path class="cls-2" d="M69.73 83.23a29.2 29.2 0 0 0 22.72 0v10.63l-11.37 6.3-.17-.11-11.19-6.19V83.23z"/><path class="cls-3" d="M59.33 73.92a34.26 34.26 0 0 0 10.39 7.91v8.25c-9.66 0-16-2.72-19-4.46 4.48-2.99 7.21-8.25 8.61-11.7zM111.44 85.62c-3 1.74-9.35 4.46-19 4.46v-8.25a34.29 34.29 0 0 0 10.37-7.91c1.4 3.45 4.13 8.71 8.63 11.7z"/><path class="cls-2" d="M89.58 41.71C73.51 52.92 58.72 55.64 52.79 56.29v1.09a28.36 28.36 0 0 0 56.7.94 89.61 89.61 0 0 1-19.91-16.61z"/><path class="cls-3" d="M109.48 57.38v.94a89.34 89.34 0 0 1-19.9-16.61C73.51 52.92 58.73 55.63 52.8 56.29a28.32 28.32 0 0 1 27.59-27.24h.72a28.44 28.44 0 0 1 28.37 28.37z"/><path class="cls-4" d="M114.14 26.83L83.61 40a6.24 6.24 0 0 1-4.94 0L48.14 26.83a1.21 1.21 0 0 1 0-2.21l30.53-13.13a6.24 6.24 0 0 1 4.94 0l30.53 13.13a1.21 1.21 0 0 1 0 2.21z"/><path class="cls-5" d="M112.71 26.49v15.56"/><circle class="cls-4" cx="112.71" cy="41.71" r="2.9"/><path class="cls-4" d="M105.77 97.32h-6A1.77 1.77 0 0 1 98.11 96l-1.19-4.7L66 108.41a1.77 1.77 0 0 0-.62 1.33v35a66.32 66.32 0 0 0 65.46-22.05v-.35a25.09 25.09 0 0 0-25.07-25.02z"/><path class="cls-6" d="M64 109.53l2-1.12a2 2 0 0 1 .29-.22l14.8-8.19-13.47-7.45-1.2 4.69a1.77 1.77 0 0 1-1.71 1.33h-5.95a25.08 25.08 0 0 0-25 25.05v4A66.38 66.38 0 0 0 64 144.45z"/><path class="cls-6" d="M66 108.41l-2 1.12v34.92l1.4.32v-35a1.77 1.77 0 0 1 .6-1.36z"/><path class="cls-2" d="M55.24 68.72a5.59 5.59 0 0 1 0-11.18M107 57.54a5.59 5.59 0 0 1 0 11.18"/><circle class="cls-3" cx="95.35" cy="59.27" r="2.9"/><circle class="cls-3" cx="66.82" cy="59.27" r="2.9"/><path class="cls-5" d="M85.25 71.84a4.17 4.17 0 0 1-8.33 0"/></g></g></svg>