<svg xmlns="http://www.w3.org/2000/svg" viewBox="0 0 210 210"><defs><style>.cls-1{fill:#d5c29f}</style></defs><g id="Слой_2" data-name="Слой 2"><g id="_9._качество_и_безопастность" data-name="9. качество и безопастность"><circle class="cls-1" cx="105" cy="105" r="105"/><path d="M170.08 144.17L158 156.3a4.7 4.7 0 0 1-6.44 0l-.38-.38 16.3-16.3a2.55 2.55 0 0 0-3.6-3.6l-16.3 16.3-3.79-3.79 16.3-16.3a2.55 2.55 0 0 0-3.6-3.6l-16.3 16.3-3.79-3.79 16.3-16.3a2.55 2.55 0 1 0-3.6-3.6l-16.3 16.3-3.8-3.79 16.3-16.3a2.55 2.55 0 0 0-3.6-3.6l-16.3 16.29-3.79-3.79 16.3-16.29a2.77 2.77 0 0 0 .56-2.47h-.23a2.43 2.43 0 0 0-.61-1.28 2.63 2.63 0 0 0-3.6 0l-16.22 16.21-3.59-3.6-.2-.19 16.22-16.21a2.55 2.55 0 0 0-3.6-3.6l-16.23 16.22-3.8-3.78 16.24-16.23a2.55 2.55 0 0 0-3.61-3.6L103 107.81 99.16 104l16.25-16.25a2.55 2.55 0 0 0-3.6-3.6l-16.26 16.29-3.8-3.78L108 80.39a2.64 2.64 0 0 0 0-3.61 2.65 2.65 0 0 0-3.6 0L88.08 93l-3.8-3.78 16.29-16.29a2.55 2.55 0 1 0-3.6-3.6l-16.3 16.3-3.79-3.79 16.3-16.3a2.55 2.55 0 0 0-3.6-3.6l-16.3 16.3-3.79-3.79 16.3-16.3a2.55 2.55 0 1 0-3.6-3.6l-16.3 16.3-3.79-3.79 16.3-16.3a2.55 2.55 0 0 0-3.6-3.6l-16.3 16.3a4.69 4.69 0 0 1 0-6.45l12.32-11.94a6.07 6.07 0 0 0 0-8.72l-22 21.8a7.9 7.9 0 0 0 0 11.37l37.53 37.72.08-.07L116 136.86l-10.33-10.32 40 40a7.9 7.9 0 0 0 11.37 0l22-22.36a6.3 6.3 0 0 0-8.96-.01z" fill="#bd5a90"/><path d="M113.53 100.69l11-63a2.36 2.36 0 0 0-4-2.05 56.63 56.63 0 0 0-14.93 29.1l-3 16.67-1 5.61s-1.71 12.8-2 15.59l-33.27 4.53a4.67 4.67 0 0 0-.16-1.48C65 96.9 56.26 90.8 46.68 92.12c-9.4 1.32-16.17 9.57-15 18.32s9.89 14.85 19.46 13.56A18.41 18.41 0 0 0 64 115.88c12.43-4.81 23.53-2.29 35.25-1.26 0 4.2 0 9 .07 11.66 0 1.38.09 2.77.09 4.15a46.9 46.9 0 0 1-3.55 19.12 18.13 18.13 0 0 0-8.75 12.54c-1.65 9.41 4 18.49 12.71 20.14s17.16-4.79 19-14.36c1.65-9.41-4-18.49-12.71-20.14a4.73 4.73 0 0 0-1.49-.16l3-16 2.46-13.9.43-2.76h.06c1.15-.07 2.32-.18 3.49-.33l6.41-.88 6.78-.92 21.8-3a56.06 56.06 0 0 0 29.65-13.61 2.36 2.36 0 0 0-1.89-4.1zm-63.38 17c-5.78.82-11.06-3-11.72-8.26s3.3-10.23 9.24-11c5.78-.66 11.06 3 11.72 8.25s-3.3 10.19-9.24 11.02zm54.63 36.47c5.28 1 8.74 6.44 7.75 12.21S106.43 176 101 175s-8.75-6.44-7.76-12.22c1.14-5.64 6.26-9.43 11.54-8.61z" fill="#804d72"/><circle class="cls-1" cx="106.15" cy="106.98" r="3.79"/></g></g></svg>