<svg xmlns="http://www.w3.org/2000/svg" viewBox="0 0 210 210"><defs><style>.cls-1{fill:#d5c29f}.cls-3{fill:#804d72}.cls-4{fill:#fff}.cls-5{fill:#e5ddcd}</style></defs><g id="Слой_2" data-name="Слой 2"><g id="_9._качество_и_безопастность" data-name="9. качество и безопастность"><circle class="cls-1" cx="105" cy="105" r="105"/><path class="cls-1" d="M104.68 193.72h.52a88.92 88.92 0 0 0 22.8-2.95 97.53 97.53 0 0 1-17.22 2.73c-2.04.13-4.06.21-6.1.22z"/><path d="M109.28 59.6a6.74 6.74 0 0 0-7.56 0l-50 33.75v64a8.71 8.71 0 0 0 8.72 8.72h90.12a8.71 8.71 0 0 0 8.71-8.72v-64z" fill="#bd5a90"/><path class="cls-3" d="M109.28 59.6l50 33.8V93l6.72 4.27a4 4 0 0 0 6.17-3.39V81.42a12.46 12.46 0 0 0-5.8-10.53l-54.19-34.33a12.48 12.48 0 0 0-13.35 0L44.62 70.91a12.47 12.47 0 0 0-5.8 10.53v12.43A4 4 0 0 0 45 97.26L51.72 93v.35l50-33.75a6.74 6.74 0 0 1 7.56 0z"/><path class="cls-4" d="M81 50.41a17.21 17.21 0 0 1-6.16-5.17 34.16 34.16 0 0 1-3.33-9.57 1.34 1.34 0 0 0-.71-1.07.69.69 0 0 0-.24-.05c-.41 0-.81.37-1 1.12a33.23 33.23 0 0 1-3.55 10 17.8 17.8 0 0 1-5.94 4.76 1.44 1.44 0 0 0-.68 1.11 2.33 2.33 0 0 0 0 .37 1.63 1.63 0 0 0 .72 1.5 17.19 17.19 0 0 1 6.43 5.53 36.2 36.2 0 0 1 3.06 9.21 1.35 1.35 0 0 0 .72 1.07.69.69 0 0 0 .49 0 1.34 1.34 0 0 0 .71-1.07 34.16 34.16 0 0 1 3.33-9.57A17.21 17.21 0 0 1 81 53.39a1.43 1.43 0 0 0 .69-1.11 2.42 2.42 0 0 0 0-.76 1.43 1.43 0 0 0-.69-1.11zM59.51 128a13.21 13.21 0 0 1-4.59-4.21 29.09 29.09 0 0 1-2.48-7.8 1.1 1.1 0 0 0-.53-.87.58.58 0 0 0-.18 0c-.3 0-.61.3-.72.91a28.85 28.85 0 0 1-2.65 8.13 13.54 13.54 0 0 1-4.43 3.84 1.21 1.21 0 0 0-.51.91 2.66 2.66 0 0 0 0 .3 1.34 1.34 0 0 0 .53 1.22 13.17 13.17 0 0 1 4.79 4.5 31.5 31.5 0 0 1 2.26 7.55 1.12 1.12 0 0 0 .53.87.48.48 0 0 0 .37 0 1.12 1.12 0 0 0 .53-.87 29.09 29.09 0 0 1 2.48-7.8 13.11 13.11 0 0 1 4.59-4.21 1.15 1.15 0 0 0 .51-.91 2.08 2.08 0 0 0 0-.61 1.15 1.15 0 0 0-.5-.95zM141 77.81a23.39 23.39 0 0 1-8.4-7 46.06 46.06 0 0 1-4.54-13.06 1.81 1.81 0 0 0-1-1.45.89.89 0 0 0-.32-.08c-.55 0-1.11.5-1.32 1.53a45.19 45.19 0 0 1-4.85 13.61 24.15 24.15 0 0 1-8.09 6.49 2 2 0 0 0-.93 1.52 2.83 2.83 0 0 0 0 .5 2.2 2.2 0 0 0 1 2 23.48 23.48 0 0 1 8.76 7.53 49.85 49.85 0 0 1 4.15 12.6 1.85 1.85 0 0 0 1 1.46.94.94 0 0 0 .66 0 1.82 1.82 0 0 0 1-1.46 45.88 45.88 0 0 1 4.54-13 23.32 23.32 0 0 1 8.4-7.05 1.94 1.94 0 0 0 .94-1.52 3.56 3.56 0 0 0 0-1 2 2 0 0 0-1-1.62z"/><path class="cls-5" d="M78.89 112.27h13a7 7 0 0 1 7 7v46.83h-27v-46.84a7 7 0 0 1 7-6.99z"/><rect class="cls-5" x="116.9" y="112.27" width="26.99" height="25.85" rx="6.56" ry="6.56"/><circle class="cls-3" cx="92.09" cy="141.05" r="2.93"/></g></g></svg>