<svg xmlns="http://www.w3.org/2000/svg" viewBox="0 0 210 210"><defs><style>.cls-2{fill:#fff}.cls-4{fill:none;stroke:#bd5a90;stroke-linecap:round;stroke-miterlimit:10;stroke-width:2.3px}</style></defs><g id="Слой_2" data-name="Слой 2"><g id="_9._качество_и_безопастность" data-name="9. качество и безопастность"><circle cx="105" cy="105" r="105" fill="#d5c29f"/><path class="cls-2" d="M143.92 153.31h-14.69v-11.64h14.69a22.93 22.93 0 1 0 0-45.85H74.2a25.35 25.35 0 0 1 0-50.7h15.23v11.63H74.2a13.72 13.72 0 0 0 0 27.44h69.72a34.56 34.56 0 0 1 0 69.12z"/><path d="M100.57 58.66H90.14a1 1 0 0 1-1-1V44.24a1 1 0 0 1 1-1h10.49a2 2 0 0 1 .55.08l10.54 3.07a1 1 0 0 1 .75 1v6.53a1 1 0 0 1-.7 1l-10.54 3.68a1.83 1.83 0 0 1-.66.06z" fill="#af9a80"/><path class="cls-4" d="M116.7 49.38h30.39a7.42 7.42 0 0 0 7.42-7.38 7.42 7.42 0 0 0-7.42-7.41M130.93 54.91h30.39a7.42 7.42 0 0 1 7.42 7.41 7.42 7.42 0 0 1-7.42 7.42"/><path d="M80.89 128.63v-10.95a8.82 8.82 0 0 1 8.82-8.82h25.12a8.82 8.82 0 0 1 8.82 8.82v12.46" stroke-width="7" fill="none" stroke="#bd5a90" stroke-linecap="round" stroke-miterlimit="10"/><path d="M155.35 145.7c0 13.17-6.19 23.85-13.82 23.85H54.66v-47.7h86.87c7.63 0 13.82 10.68 13.82 23.85z" fill="#804d72"/><ellipse cx="54.67" cy="145.7" rx="13.82" ry="23.85" fill="#bd5a90"/><path class="cls-2" d="M80.89 169.55a6.2 6.2 0 0 1-12.4 0 6.43 6.43 0 0 1 6.2-6.2 6.2 6.2 0 0 1 6.2 6.2zM136.05 169.55a6.2 6.2 0 0 1-12.4 0 6.44 6.44 0 0 1 6.21-6.2 6.2 6.2 0 0 1 6.19 6.2z"/></g></g></svg>