<svg xmlns="http://www.w3.org/2000/svg" viewBox="0 0 210 210"><defs><style>.cls-1{fill:#d5c29f}.cls-2{fill:#bd5a90}.cls-3{fill:#804d72}.cls-4{fill:#fff}.cls-5{fill:#e5ddcd}</style></defs><g id="Слой_2" data-name="Слой 2"><g id="_9._качество_и_безопастность" data-name="9. качество и безопастность"><circle class="cls-1" cx="105" cy="105" r="105"/><path class="cls-2" d="M112 157.7c0 2.85 2.8 5.16 6.27 5.16h41.39c3.46 0 6.27-2.31 6.27-5.16v-24.59H112z"/><path class="cls-3" d="M149 78.24a3.45 3.45 0 0 0 3.11-3.41V68a3.44 3.44 0 0 0-3.45-3.45h-19.45a3.44 3.44 0 0 0-3.45 3.45v6.85a3.44 3.44 0 0 0 3.45 3.44H149z"/><path class="cls-4" d="M111.99 86.19h53.94v46.92h-53.94z"/><path class="cls-2" d="M165.92 81.3c0-5.9-3.2-11.56-8.79-15.53-1.39-1-2.63-1.74-3.75-2.4-2.88-1.72-4.16-2.54-4.35-5.34h-19.66c-.19 2.71-1.42 3.44-4.3 5-1.12.66-2.41 1.38-3.88 2.38-5.85 4-9.2 9.76-9.2 15.84v4.89h53.93z"/><path class="cls-1" d="M131.23 131.32h-.43a4.35 4.35 0 0 1-2.16-.8 5.15 5.15 0 0 1-2.11-3.21 5.64 5.64 0 0 1-.11-1.53 6.68 6.68 0 0 1 .34-1.77 8.82 8.82 0 0 1 1.35-2.51 10.61 10.61 0 0 1 1.49-1.58 14 14 0 0 0 1.42-1.46c.55-.65 1-1.35 1.53-2s.86-1.24 1.32-1.84a13.68 13.68 0 0 1 1.12-1.28 5.45 5.45 0 0 1 1.74-1.19 4.19 4.19 0 0 1 1.56-.33 6.41 6.41 0 0 1 1.8.19 5.21 5.21 0 0 1 2.38 1.3 9.54 9.54 0 0 1 1.22 1.46c.39.55.74 1.12 1.11 1.69a22.28 22.28 0 0 0 1.32 1.86 12.17 12.17 0 0 0 1.58 1.63 11.46 11.46 0 0 1 1.83 2 8.36 8.36 0 0 1 1.07 2.05 6.78 6.78 0 0 1 .36 1.79 5.21 5.21 0 0 1-.53 2.66 5.1 5.1 0 0 1-1.67 1.9 4.88 4.88 0 0 1-1.71.8 3.82 3.82 0 0 1-.66.12h-1.04a7.15 7.15 0 0 1-1.46-.22c-.81-.19-1.6-.43-2.41-.64a16.45 16.45 0 0 0-2-.37 9.23 9.23 0 0 0-1.39 0 8.42 8.42 0 0 0-1.11.14c-.72.14-1.42.34-2.13.53a22.47 22.47 0 0 1-2.26.54 5.88 5.88 0 0 1-.94.1 1.33 1.33 0 0 0-.2 0 1 1 0 0 1-.22-.03zM145.42 99.22a3.46 3.46 0 0 1 2.45 1.49 5.26 5.26 0 0 1 .85 1.9 6.76 6.76 0 0 1 .17 1.79 7.84 7.84 0 0 1-.77 3.19 6.47 6.47 0 0 1-1.32 1.87 4.78 4.78 0 0 1-1.69 1.11 3.57 3.57 0 0 1-1.41.23 3.31 3.31 0 0 1-2.16-1 4.74 4.74 0 0 1-1.11-1.77 6.53 6.53 0 0 1-.33-1.44 6.77 6.77 0 0 1 0-1 7.73 7.73 0 0 1 .42-2.33 7.12 7.12 0 0 1 1.19-2.2 5.27 5.27 0 0 1 1.59-1.38 3.85 3.85 0 0 1 1.48-.48H145.41s-.01.01.01.02zM121.49 111.6a4.19 4.19 0 0 1 .15-.94 4 4 0 0 1 .84-1.61 3.06 3.06 0 0 1 1.71-1 3.38 3.38 0 0 1 1.64.1 4.58 4.58 0 0 1 1.65.93 6.23 6.23 0 0 1 1.68 2.38 6.41 6.41 0 0 1 .41 1.5 4.74 4.74 0 0 1 .06.75 5.67 5.67 0 0 1-.15 1.42 4 4 0 0 1-.85 1.66 3 3 0 0 1-1.83 1 3.22 3.22 0 0 1-1.57-.14 4.66 4.66 0 0 1-1.82-1.1 6.2 6.2 0 0 1-1.24-1.68 6.74 6.74 0 0 1-.63-2c0-.12 0-.24-.05-.36s0-.11 0-.17v-.07-.53a.29.29 0 0 0 0-.13s-.02.02 0-.01zM128.78 104.46a6.67 6.67 0 0 1 .42-2.43 4.69 4.69 0 0 1 1-1.57 3.38 3.38 0 0 1 1.65-1 3.19 3.19 0 0 1 1.93.11 4.26 4.26 0 0 1 1.48.91 6.31 6.31 0 0 1 1.54 2.28 7.5 7.5 0 0 1 .47 1.71 8.61 8.61 0 0 1 .09 1 6.73 6.73 0 0 1-.09 1.27 5.52 5.52 0 0 1-1 2.43 3.78 3.78 0 0 1-1.23 1.09 3.09 3.09 0 0 1-1.76.38 3.47 3.47 0 0 1-1.57-.51 5.16 5.16 0 0 1-1.58-1.47 7 7 0 0 1-1.08-2.32 7.44 7.44 0 0 1-.23-1.4 4.71 4.71 0 0 1-.04-.48zM156.45 112v.11a6.2 6.2 0 0 1-.63 2.41 6.35 6.35 0 0 1-1.1 1.62 5.32 5.32 0 0 1-2.07 1.4 3.79 3.79 0 0 1-1.49.24 3.18 3.18 0 0 1-2-.83 3.69 3.69 0 0 1-1-1.55 4.76 4.76 0 0 1-.22-1.63 6.32 6.32 0 0 1 1.08-3.37 7.12 7.12 0 0 1 .78-1 5.17 5.17 0 0 1 2.09-1.32 3.61 3.61 0 0 1 1.42-.18 3.12 3.12 0 0 1 1.93.84 3.75 3.75 0 0 1 1 1.66 4.52 4.52 0 0 1 .18 1.08v.52z"/><path class="cls-2" d="M96.46 54.67v-8.9A1.49 1.49 0 0 0 95 44.29H50.42a1.47 1.47 0 0 0-1.48 1.48v9.27h47.49z"/><path class="cls-5" d="M56.35 148.17v13.21a1.47 1.47 0 0 0 1.48 1.48h29.7a1.49 1.49 0 0 0 1.47-1.48v-13.4H56.33z"/><path class="cls-3" d="M48.96 55.05l7.37 92.93h32.73l7.36-92.93H48.96z"/><path class="cls-4" d="M65.43 162.86a7.27 7.27 0 0 1 14.54 0"/><path class="cls-5" d="M86 67.83c0-.65 1.46-1.61 1.5-2.73a3.45 3.45 0 0 0-3.37-3.58 3.58 3.58 0 0 0-3.37 2.26 1.27 1.27 0 0 1-1.08.85 46.86 46.86 0 0 1-6.91.26 40.13 40.13 0 0 1-6.87-.68 1.34 1.34 0 0 1-1-.91 3.48 3.48 0 0 0-6.81.91c0 1.12 1.35 2.22 1.33 2.81 0 .65-1.46 1.6-1.49 2.72a3.44 3.44 0 0 0 3.36 3.58 3.57 3.57 0 0 0 3.37-2.25 1.27 1.27 0 0 1 1.09-.85 45.33 45.33 0 0 1 6.81-.22 40.56 40.56 0 0 1 6.87.68 1.38 1.38 0 0 1 1 .92 3.48 3.48 0 0 0 6.8-.92c.09-1.17-1.29-2.27-1.27-2.8z"/><rect class="cls-3" x="126.41" y="44.29" width="25.3" height="13.74" rx="2.35" ry="2.35"/></g></g></svg>