<svg xmlns="http://www.w3.org/2000/svg" viewBox="0 0 160 160"><defs><style>.cls-3{fill:#804d72}.cls-4{fill:#e5ddcd}.cls-5{fill:#604051}</style></defs><g id="Слой_2" data-name="Слой 2"><g id="_9._качество_и_безопастность" data-name="9. качество и безопастность"><circle cx="80" cy="80" r="80" fill="#fff"/><path d="M65.78 123.35H82.1v9.38a2.85 2.85 0 0 1-2.85 2.85H68.64a2.85 2.85 0 0 1-2.85-2.85v-9.38h-.01z" fill="#d5c29f"/><circle class="cls-3" cx="38.28" cy="90.33" r="19.1"/><circle class="cls-3" cx="109.55" cy="90.33" r="19.1"/><path class="cls-4" d="M111.1 82.94a7.5 7.5 0 1 1 0 15M37.31 96.7a7.5 7.5 0 1 1 0-15"/><path class="cls-4" d="M75.87 55.4a28.55 28.55 0 0 1-39.51 26.33 37.81 37.81 0 0 0-.76 7.57 38.33 38.33 0 1 0 76.66 0 37.73 37.73 0 0 0-.53-6.33A28.56 28.56 0 0 1 75.87 55.4z"/><path class="cls-3" d="M75.87 55.4a28.89 28.89 0 0 0-.34-4.4h-1.6a38.34 38.34 0 0 0-37.57 30.73A28.55 28.55 0 0 0 75.87 55.4z"/><path class="cls-3" d="M75.53 51c-.22 1.42.34 2.91.34 4.39A28.56 28.56 0 0 0 111.73 83c-2.9-17.46-18.21-30.94-36.2-32z"/><circle class="cls-5" cx="53.06" cy="92.37" r="4.33"/><circle class="cls-5" cx="93.61" cy="92.37" r="4.33"/><path d="M80 104.18a1.27 1.27 0 0 1 1.27 1.5 7.47 7.47 0 0 1-14.61.08 1.29 1.29 0 0 1 1.25-1.58z" fill="#bd5a90"/><path class="cls-4" d="M103 24c-12.76 0-23.1 5.88-23.1 13.14 0 2.87 1.62 5.52 4.37 7.68a15.7 15.7 0 0 0 1.36 1c4.2 2.69 10.37 4.43 17.37 4.43a39.1 39.1 0 0 0 6.79-.58 12.63 12.63 0 0 1-2.67 8.7c.41-.18.82-.36 1.22-.58a16.29 16.29 0 0 0 8-9.95c5.91-2.38 9.77-6.3 9.77-10.73C126.07 29.85 115.73 24 103 24z"/><circle class="cls-5" cx="92.04" cy="36.53" r="2.61"/><circle class="cls-5" cx="102.97" cy="36.53" r="2.61"/><circle class="cls-5" cx="113.9" cy="36.53" r="2.61"/></g></g></svg>