<svg xmlns="http://www.w3.org/2000/svg" viewBox="0 0 160 160"><defs><style>.cls-2{fill:#e5ddcd}.cls-3{fill:#bd5a90}.cls-4{fill:#804d72}.cls-7{fill:none}.cls-8{fill:#604051}</style></defs><g id="Слой_2" data-name="Слой 2"><g id="_9._качество_и_безопастность" data-name="9. качество и безопастность"><circle cx="80" cy="80" r="80" fill="#fff"/><path class="cls-2" d="M26.43 79.2a9.23 9.23 0 0 1-3.32-2.79 17.93 17.93 0 0 1-1.8-5.16.73.73 0 0 0-.38-.58h-.13c-.22 0-.44.2-.52.61a17.93 17.93 0 0 1-1.92 5.38 9.6 9.6 0 0 1-3.2 2.57.77.77 0 0 0-.37.6 1.23 1.23 0 0 0 0 .2.89.89 0 0 0 .39.81 9.25 9.25 0 0 1 3.47 3 20 20 0 0 1 1.65 5 .71.71 0 0 0 .38.57.42.42 0 0 0 .27 0 .69.69 0 0 0 .38-.57 18.11 18.11 0 0 1 1.8-5.17 9.2 9.2 0 0 1 3.32-2.78.77.77 0 0 0 .37-.6 1.41 1.41 0 0 0 0-.41.77.77 0 0 0-.39-.68zM120.78 37.73a13.59 13.59 0 0 1-4.9-4.11 26.93 26.93 0 0 1-2.65-7.62 1.05 1.05 0 0 0-.57-.85.58.58 0 0 0-.19 0c-.32 0-.65.29-.77.89a26.48 26.48 0 0 1-2.82 7.93 14.13 14.13 0 0 1-4.72 3.79 1.12 1.12 0 0 0-.55.88v.29a1.29 1.29 0 0 0 .58 1.2 13.76 13.76 0 0 1 5.11 4.39 28.93 28.93 0 0 1 2.43 7.33 1.09 1.09 0 0 0 .57.85.53.53 0 0 0 .39 0 1.07 1.07 0 0 0 .57-.85 26.82 26.82 0 0 1 2.65-7.61 13.59 13.59 0 0 1 4.9-4.11 1.15 1.15 0 0 0 .54-.89 2 2 0 0 0 0-.6 1.14 1.14 0 0 0-.57-.91z"/><circle class="cls-3" cx="64.27" cy="53.04" r="14.3"/><path class="cls-4" d="M40.36 40a3.53 3.53 0 0 0-3.63 3.49 3.56 3.56 0 1 0 7.12 0A3.49 3.49 0 0 0 40.36 40zm23.87 22A9.19 9.19 0 0 1 55 52.77 9.34 9.34 0 1 1 64.23 62zm0-23.23a14 14 0 1 0 14 14 14 14 0 0 0-14-14.03zm27.43 32.2H36.94a4.67 4.67 0 0 1-4.7-4.56V40.66a4.63 4.63 0 0 1 4.7-4.56h12.9l2.35-5.91a2.22 2.22 0 0 1 2.07-1.35h20.09a2.12 2.12 0 0 1 2.06 1.35l2.43 5.91h3.06V34a2.31 2.31 0 0 1 2.42-2.36h3.42A2.23 2.23 0 0 1 90.17 34v2.1h1.49a4.58 4.58 0 0 1 4.7 4.56v25.72a4.71 4.71 0 0 1-4.7 4.56z"/><circle class="cls-3" cx="40.29" cy="43.58" r="4.02"/><path d="M47.54 85.33a12.24 12.24 0 0 0-.18-2H55a14.66 14.66 0 0 0 11.71-5.93l9-12.14a13.89 13.89 0 0 1 11.11-5.58h20.62a19.45 19.45 0 0 1 17.59 11.26h-14a8.74 8.74 0 0 0-8.73 8.73v48.71a3.12 3.12 0 0 1-1 .17s-15.36.07-25.93 0a20.88 20.88 0 0 0 7.37-10.66 2 2 0 1 0-3.74-1.18c-3.38 10.4-12.06 11.38-12.42 11.41a2.06 2.06 0 0 0-.92.35 34.3 34.3 0 0 1-17.48-6.15c-.58-.41-1.13-.83-1.68-1.26a34.5 34.5 0 0 1-12.87-23.72 12.79 12.79 0 0 0 1.76.14 12.15 12.15 0 0 0 12.15-12.15z" fill="#af9a80"/><path d="M111.07 70.94h14c.22.48.43 1 .61 1.46l10 27.29a12.11 12.11 0 0 1 .38 5.15 29 29 0 0 1-22 25.35l-7.9 2a3 3 0 0 1-3.77-2.95V79.68a8.73 8.73 0 0 1 8.68-8.74z" fill="#d5c29f"/><path d="M85.51 86.8a3.55 3.55 0 1 0 3.55-3.55 3.55 3.55 0 0 0-3.55 3.55zM73.81 86.8a3.55 3.55 0 1 0 3.54-3.55 3.55 3.55 0 0 0-3.54 3.55z"/><path class="cls-7" d="M89.06 83.25a3.55 3.55 0 1 1-3.55 3.55 3.55 3.55 0 0 1 3.55-3.55zM77.35 83.25a3.55 3.55 0 1 1-3.54 3.55 3.55 3.55 0 0 1 3.54-3.55z"/><path class="cls-8" d="M85.51 86.8a3.55 3.55 0 1 1 3.55 3.55 3.55 3.55 0 0 1-3.55-3.55zM73.81 86.8a3.55 3.55 0 1 1 3.54 3.55 3.55 3.55 0 0 1-3.54-3.55z"/><path class="cls-3" d="M79 116.71a2 2 0 0 1 3.78 1.22 20.83 20.83 0 0 1-7.38 10.66c-5.41 0-9.57-.05-9.74-.12a2 2 0 0 1 .92-.35c.35-.04 9.03-1.02 12.42-11.41z"/><path class="cls-4" d="M33.47 86.35a3 3 0 0 1 3-3h10.89a12.09 12.09 0 0 1-12 14.17 12.79 12.79 0 0 1-1.76-.14c-.1-1.07-.16-2.14-.16-3.22z"/><path class="cls-2" d="M140.75 82.65a16.41 16.41 0 0 1-5.9-4.94 32.52 32.52 0 0 1-3.18-9.17 1.3 1.3 0 0 0-.69-1 .59.59 0 0 0-.23 0c-.39 0-.78.35-.92 1.07a31.75 31.75 0 0 1-3.41 9.56 16.73 16.73 0 0 1-5.68 4.55 1.39 1.39 0 0 0-.66 1.07v.35a1.57 1.57 0 0 0 .69 1.44 16.39 16.39 0 0 1 6.15 5.29 34.84 34.84 0 0 1 2.94 8.82 1.26 1.26 0 0 0 .68 1 .64.64 0 0 0 .47 0 1.29 1.29 0 0 0 .69-1 32.34 32.34 0 0 1 3.18-9.16 16.33 16.33 0 0 1 5.9-4.95 1.39 1.39 0 0 0 .66-1.07 2.17 2.17 0 0 0 0-.72 1.39 1.39 0 0 0-.69-1.14z"/></g></g></svg>