<svg xmlns="http://www.w3.org/2000/svg" viewBox="0 0 160 160"><defs><style>.cls-2{fill:#804d72}.cls-3{fill:#bd5a90}.cls-4{fill:#8d7c60}.cls-7{fill:#af9a80}.cls-6{fill:#604051}.cls-7{stroke:#804d72;stroke-linecap:round;stroke-miterlimit:10;stroke-width:3px}</style></defs><g id="Слой_2" data-name="Слой 2"><g id="_9._качество_и_безопастность" data-name="9. качество и безопастность"><circle cx="80" cy="80" r="80" fill="#fff"/><circle class="cls-2" cx="91.29" cy="56.73" r="33.44"/><path class="cls-3" d="M91.29 31.76a25 25 0 1 0 25 25 25 25 0 0 0-25-25zM102 58.56H91.29a1.78 1.78 0 0 1-1.79-1.79V38.91a1.79 1.79 0 1 1 3.57 0V55H102a1.79 1.79 0 1 1 0 3.57z"/><path class="cls-4" d="M30.37 114.29a1.8 1.8 0 0 1-2.62 0A27.18 27.18 0 0 1 66.82 76.5zM74 77.54a27.18 27.18 0 0 1 40.39 36.32 1.79 1.79 0 0 1-2.61.13z"/><circle cx="70.59" cy="104.22" r="30.64" fill="#af9a80"/><path class="cls-6" d="M78.09 99.94a4.26 4.26 0 1 1 4.27 4.27 4.26 4.26 0 0 1-4.27-4.27zM52.54 99.94a4.27 4.27 0 1 1 4.27 4.27 4.26 4.26 0 0 1-4.27-4.27z"/><path class="cls-3" d="M67.46 122.41h5.87a1.9 1.9 0 0 1 1.9 1.9V134a4.83 4.83 0 0 1-4.83 4.83 4.83 4.83 0 0 1-4.84-4.83v-9.73a1.9 1.9 0 0 1 1.9-1.86z"/><path class="cls-2" d="M71.72 114.65a1.72 1.72 0 0 1-2.65 0L67.19 112l-1.88-2.65c-.58-.83.15-1.86 1.33-1.86h7.51c1.18 0 1.91 1 1.32 1.86L73.6 112z"/><path class="cls-7" d="M79.56 119.58a4.59 4.59 0 0 1-9.17 0M70.39 119.58a4.58 4.58 0 1 1-9.16 0M70.39 119.58v-5.24"/><path fill="#d5c29f" stroke="#804d72" stroke-linecap="round" stroke-miterlimit="10" stroke-width="3" d="M70.39 121.43v9.7"/></g></g></svg>