<svg xmlns="http://www.w3.org/2000/svg" viewBox="0 0 160 160"><defs><style>.cls-2{fill:#804d72}.cls-4{fill:#e5ddcd}</style></defs><g id="Слой_2" data-name="Слой 2"><g id="_9._качество_и_безопастность" data-name="9. качество и безопастность"><circle cx="80" cy="80" r="80" fill="#fff"/><ellipse class="cls-2" cx="77.93" cy="117.62" rx="45.72" ry="13.82"/><path d="M132.77 66.36A19 19 0 0 0 112.38 57v-3.3a1.8 1.8 0 0 0-.45-1.28 3 3 0 0 0-1.88-.76H44.27a1.76 1.76 0 0 0-1.76 1.23 3.93 3.93 0 0 0 0 1.41v21.57c0 .9 0 1.81-.06 2.71a16.5 16.5 0 0 0 .25 2.63A29.52 29.52 0 0 0 43.78 87c.4 1.21.72 2.44 1.22 3.62a36 36 0 0 0 7.72 11.86 35.45 35.45 0 0 0 9.46 6.87c-.57 1.06-1.12 2.13-1.68 3.2l-.31.59a3.23 3.23 0 0 0-.24.68C59.93 116.67 68 119 78 119s18.07-2.32 18.07-5.19a4.09 4.09 0 0 0-.55-1.29c-.06-.1-.13-.22-.18-.32-.63-1.14-1.26-2.27-1.88-3.41a35.37 35.37 0 0 0 15.45-16.59 2 2 0 0 0 .67.45 19 19 0 0 0 7.21 1.16 23.17 23.17 0 0 0 3.53-.44 18.85 18.85 0 0 0 12.48-9.27c.22-.38.35-.8.58-1.18a18.24 18.24 0 0 0-.61-16.56zm-11.35 13.33a7 7 0 0 1-4.53 2.17 7.27 7.27 0 0 1-4.84-1.28c0-1 .16-1.88.12-2.83 0-.49.24-.92.22-1.42v-7.2a7.06 7.06 0 0 1 2.86-1 11.35 11.35 0 0 1 2.54.09 6.88 6.88 0 0 1 4.51 3.24 6.8 6.8 0 0 1-.88 8.23z" fill="#bd5a90"/><path d="M59.93 113.8a1.92 1.92 0 0 1 .55-1.27l-.31.59a3.23 3.23 0 0 0-.24.68zM96.06 113.8a4.09 4.09 0 0 0-.55-1.29 2 2 0 0 1 .55 1.29z"/><path class="cls-4" d="M51.73 74.87a1.77 1.77 0 1 1 .68 3.46 1.77 1.77 0 0 1-.68-3.46zM52.21 81.59a1.77 1.77 0 0 1 1.81.66 3.08 3.08 0 0 1 .46 1.29A23.1 23.1 0 0 0 57 89.8a26.92 26.92 0 0 0 4.7 5.56c.53.52 1.31.88 1.53 1.64a1.77 1.77 0 0 1-2.88 1.84 20.39 20.39 0 0 1-2.48-2.25 8.22 8.22 0 0 1-1.24-1.33c-.34-.48-.82-.86-1.12-1.37-.44-.73-1-1.39-1.44-2.1a26.19 26.19 0 0 1-3.16-8.13 1.77 1.77 0 0 1 1.3-2.07z"/><path class="cls-2" d="M108.38 58.33c2.55-1.49 4-3.18 4-5 0-5.91-15.64-10.7-34.94-10.7s-34.93 4.79-34.93 10.7c0 1.8 1.45 3.49 4 5C52.36 54.92 64 52.6 77.44 52.6s25.09 2.32 30.94 5.73z"/><ellipse cx="77.44" cy="58.33" rx="30.93" ry="5.73" fill="#d5c29f"/><path class="cls-4" d="M76.61 18.54a1.74 1.74 0 0 1 1.84.29 10.23 10.23 0 0 1 3 5 10.12 10.12 0 0 1-.74 7.17 10.87 10.87 0 0 1-3.25 3.81A6.67 6.67 0 0 0 77 45.88c.49.41 1.18.62 1.48 1.22a1.77 1.77 0 0 1-.67 2.39 1.75 1.75 0 0 1-1.65 0A10.38 10.38 0 0 1 71.8 45a10.11 10.11 0 0 1-1-6 10.3 10.3 0 0 1 3.2-6c.62-.61 1.39-1 2-1.62a6.67 6.67 0 0 0 2.26-5.65A7 7 0 0 0 76 21.36a1.75 1.75 0 0 1 .61-2.82zM61.65 25.47a2.38 2.38 0 0 1 1.83.67 8.88 8.88 0 0 1 3.41 5.63 8.71 8.71 0 0 1-1.38 6.28c-.83 1.32-2.31 2.17-2.8 3.7a5.12 5.12 0 0 0 .92 5.32A1.77 1.77 0 0 1 61 49.38a8.72 8.72 0 0 1 .77-12.27 5.43 5.43 0 0 0 1.72-3.57A5.28 5.28 0 0 0 61.34 29a2.3 2.3 0 0 1-1.09-1.17 1.8 1.8 0 0 1 1.4-2.36zM90.27 27.79a1.77 1.77 0 0 1 2.11.8 8.67 8.67 0 0 1 .75 6.12 9.78 9.78 0 0 1-1.48 3.17c-.31.7-.9 1.21-1.18 1.91a5.19 5.19 0 0 0 .29 4.91 5.5 5.5 0 0 0 1.71 1.72 1.77 1.77 0 0 1-1.91 3 8.73 8.73 0 0 1-3.32-11.05c.3-.7.78-1.29 1.11-2 .23-.39.56-.7.77-1.1a5.21 5.21 0 0 0 .16-5 1.77 1.77 0 0 1 .99-2.48z"/></g></g></svg>