<svg xmlns="http://www.w3.org/2000/svg" viewBox="0 0 160 160"><defs><style>.cls-1{fill:#fff}.cls-2{fill:#d5c29f}.cls-3{fill:#8d7c60}.cls-4{fill:#804d72}</style></defs><g id="Слой_2" data-name="Слой 2"><g id="_9._качество_и_безопастность" data-name="9. качество и безопастность"><circle class="cls-1" cx="80" cy="80" r="80"/><path class="cls-2" d="M124.91 106.39a6.27 6.27 0 1 0 6.27 6.27 6.27 6.27 0 0 0-6.27-6.27z"/><path class="cls-3" d="M125 101.71a11.14 11.14 0 0 0-11.12 11.12c0 .36 0 .71.06 1.06 0 .18 0 .37.08.56s0 .41.09.61a11.12 11.12 0 0 0 21.79 0c.05-.2.07-.41.1-.61s.06-.38.07-.56a9.28 9.28 0 0 0 .06-1.06A11.14 11.14 0 0 0 125 101.71zm-.09 17.21a6.27 6.27 0 1 1 6.28-6.26 6.27 6.27 0 0 1-6.29 6.26z"/><path class="cls-4" d="M46.76 114.21h37.69l-7.62-22.24-28.93 6.68-1.14 15.56z"/><rect class="cls-4" x="26.76" y="28.64" width="44.14" height="44.14" rx="7.84" ry="7.84"/><path class="cls-1" d="M48.36 53.83h-4.07v8.23a2.72 2.72 0 0 1-.59 2 2.51 2.51 0 0 1-1.84.58q-1.8 0-1.8-1.95V38.78a2.25 2.25 0 0 1 .4-1.53 1.77 1.77 0 0 1 1.32-.43h8.06a15.07 15.07 0 0 1 1.81.17 13.17 13.17 0 0 1 2 .46 9.59 9.59 0 0 1 2.07 1 6.51 6.51 0 0 1 1.26 1 5.78 5.78 0 0 1 1 1.38 6.89 6.89 0 0 1 .69 1.82 9.56 9.56 0 0 1 .25 2.31 9.38 9.38 0 0 1-.65 3.49 7.71 7.71 0 0 1-2 2.82A9.42 9.42 0 0 1 53 53.14a14.23 14.23 0 0 1-4.64.69zm0-14.94h-4v12.87h4a6.11 6.11 0 0 0 4.54-1.66c1.08-1.1 1.62-2.83 1.62-5.17a8.93 8.93 0 0 0-.34-2.59 4.77 4.77 0 0 0-1.09-1.9 4.82 4.82 0 0 0-1.93-1.16 9.06 9.06 0 0 0-2.84-.39z"/><path class="cls-4" d="M110.65 114.21h-3.72c-.93-6.91 1.09-12.85 5.46-16a13.31 13.31 0 0 1 7.93-2.41c7.54 0 15.31 4.87 21.12 13 1.59 1.9 1.84 5.36 1.84 5.36h-32.63z"/><path d="M116.64 75.39c-10.06-6.46-21.46-10-32.1-10-1.36 0-2.7 0-4 .17a2.32 2.32 0 0 0-2 1.6l-5.9 18.49a2.3 2.3 0 0 1-2.2 1.6h-.6c-17 .73-30.34 12.24-30.34 26.18v.76h7.82c0-.47-.07-.92-.07-1.38A17.53 17.53 0 0 1 69.62 96a17.25 17.25 0 0 1 12.56 16.84 12.28 12.28 0 0 1-.07 1.34H107c-.82-6.73 1.2-12.54 5.51-15.67a13.46 13.46 0 0 1 8-2.47c7.2 0 15.07 4.68 20.53 12.2.44.61.85 1.24 1.25 1.87-2.47-12.92-11.91-25.89-25.65-34.72zm-18.92.35a2.31 2.31 0 0 1 3.09-2.17 40.7 40.7 0 0 1 13.7 7.71l.21.18a2.3 2.3 0 0 1-1.56 4H100a2.3 2.3 0 0 1-2.3-2.31zm-8 9.73H80a2.3 2.3 0 0 1-2.19-3l3.56-10.9A2.3 2.3 0 0 1 83.78 70c2.2.22 4.34.51 6.4.87a2.3 2.3 0 0 1 1.89 2.27v10.02a2.31 2.31 0 0 1-2.31 2.31z" fill="#bd5a90"/><path class="cls-2" d="M64.64 106.39a6.27 6.27 0 1 0 6.26 6.27 6.27 6.27 0 0 0-6.26-6.27z"/><path class="cls-3" d="M64.72 101.71a11.13 11.13 0 0 0-11.12 11.12v1.06c0 .18.06.37.08.56s.06.41.1.61a11.12 11.12 0 0 0 21.79 0c0-.2.07-.41.1-.61s0-.38.07-.56a9.28 9.28 0 0 0 .06-1.06 11.14 11.14 0 0 0-11.08-11.12zm-.09 17.21a6.27 6.27 0 1 1 6.27-6.26 6.27 6.27 0 0 1-6.27 6.26z"/></g></g></svg>