<svg xmlns="http://www.w3.org/2000/svg" viewBox="0 0 160 160"><defs><style>.cls-2{fill:#604051}.cls-3{fill:#fff}</style></defs><g id="Слой_2" data-name="Слой 2"><g id="_3._профессионализм" data-name="3. профессионализм"><circle cx="80" cy="80" r="80" fill="#d5c29f"/><path class="cls-2" d="M124.8 119.25c-4.17 2.41-12.91 6.16-26.21 6.17V114a46.93 46.93 0 0 0 14.3-10.9c1.93 4.77 5.69 12.04 11.91 16.15zM33.73 103.12A47.05 47.05 0 0 0 48 114v11.4c-13.29 0-22-3.76-26.2-6.17 6.25-4.09 10.01-11.36 11.93-16.11z"/><path class="cls-3" d="M111.69 88.18a7.8 7.8 0 1 1 0 15.59M34.93 103.77a7.8 7.8 0 1 1 0-15.59"/><path class="cls-3" d="M75 59.64A29.69 29.69 0 0 1 33.94 87a39.87 39.87 0 1 0 79 7.88 39.69 39.69 0 0 0-.55-6.59A29.7 29.7 0 0 1 75 59.64z"/><path class="cls-2" d="M75 59.64a29.75 29.75 0 0 0-.35-4.56h-1.66A39.89 39.89 0 0 0 33.94 87 29.69 29.69 0 0 0 75 59.64z"/><path class="cls-2" d="M74.69 55.08c-.22 1.47.35 3 .35 4.56a29.7 29.7 0 0 0 37.31 28.68c-3.01-18.13-18.95-32.15-37.66-33.24z"/><circle class="cls-2" cx="51.31" cy="98.1" r="4.5"/><circle class="cls-2" cx="93.5" cy="98.1" r="4.5"/><path d="M79.32 110.38a1.33 1.33 0 0 1 1.32 1.62 7.77 7.77 0 0 1-15.2.08 1.35 1.35 0 0 1 1.3-1.65z" fill="#bd5a90"/><path class="cls-3" d="M105.71 25.77c-13.27 0-24 6.12-24 13.67 0 3 1.69 5.74 4.55 8a16.91 16.91 0 0 0 1.41 1c4.4 2.86 10.87 4.67 18.07 4.67a41.07 41.07 0 0 0 7.06-.6 13.08 13.08 0 0 1-2.8 9.05c.43-.19.85-.38 1.27-.6a17 17 0 0 0 8.31-10.36c6.15-2.48 10.17-6.55 10.17-11.16 0-7.55-10.75-13.67-24.04-13.67z"/><circle class="cls-2" cx="94.35" cy="38.83" r="2.71"/><circle class="cls-2" cx="105.71" cy="38.83" r="2.71"/><circle class="cls-2" cx="117.08" cy="38.83" r="2.71"/></g></g></svg>