<svg xmlns="http://www.w3.org/2000/svg" viewBox="0 0 160 160"><defs><style>.cls-2{fill:#804d72}.cls-4{fill:#bd5a90}.cls-5{fill:#fff}</style></defs><g id="Слой_2" data-name="Слой 2"><g id="_3._профессионализм" data-name="3. профессионализм"><circle cx="80" cy="80" r="80" fill="#d5c29f"/><path class="cls-2" d="M105.08 93.61H56.64a9 9 0 0 1-9-8.6l-1.71-43.78a9 9 0 0 1 9-9.32H107a9 9 0 0 1 9 9.35L114 85a9 9 0 0 1-8.92 8.61z"/><path fill="#604051" d="M45.92 87.54h65.9v14.74h-65.9z"/><path class="cls-2" d="M45.92 101.93h65.9v26.16h-65.9z"/><path class="cls-4" d="M39.54 128.09h9.79a5 5 0 0 0 5-5v-47a5 5 0 0 0-5-5H37.81a5 5 0 0 0-5 5.13l1.73 47a5 5 0 0 0 5 4.87zM120.46 128.09h-9.79a5 5 0 0 1-5-5v-47a5 5 0 0 1 5-5h11.52a5 5 0 0 1 5 5.13l-1.73 47a5 5 0 0 1-5 4.87zM78.76 60.2a3.83 3.83 0 0 1-1-.66 4.6 4.6 0 0 1 2.14-1 4.24 4.24 0 0 1 .38-1.14 3.66 3.66 0 0 1 .66-1 3.78 3.78 0 0 1 .65 1 4.24 4.24 0 0 1 .41 1.1 4.24 4.24 0 0 1 1.14.38 3.83 3.83 0 0 1 1 .66 3.83 3.83 0 0 1-1 .66 4.17 4.17 0 0 1-1.13.38 4.63 4.63 0 0 1-.38 1.14 4.2 4.2 0 0 1-.66 1 3.88 3.88 0 0 1-.66-1 4.24 4.24 0 0 1-.38-1.14 4.49 4.49 0 0 1-1.17-.38zM79.9 46.1a3.92 3.92 0 0 0 .38 1.14 3.66 3.66 0 0 0 .66 1 4 4 0 0 0 .66-1 4.63 4.63 0 0 0 .4-1.14 4.17 4.17 0 0 0 1.13-.38 3.83 3.83 0 0 0 1-.66 4.14 4.14 0 0 0-1-.66A4.24 4.24 0 0 0 82 44a4.24 4.24 0 0 0-.38-1.14 4 4 0 0 0-.65-1 3.88 3.88 0 0 0-.66 1A4.24 4.24 0 0 0 79.9 44a4.49 4.49 0 0 0-1.14.38 4.14 4.14 0 0 0-1 .66 3.83 3.83 0 0 0 1 .66 4.13 4.13 0 0 0 1.14.4zM94.37 46.1a4.63 4.63 0 0 0 .38 1.14 3.66 3.66 0 0 0 .66 1 3.66 3.66 0 0 0 .66-1 4.24 4.24 0 0 0 .38-1.14 4.24 4.24 0 0 0 1.14-.38 3.66 3.66 0 0 0 1-.66 4 4 0 0 0-1-.66 4.24 4.24 0 0 0-1.14-.4 4.24 4.24 0 0 0-.38-1.14 3.88 3.88 0 0 0-.66-1 4 4 0 0 0-.65 1 4.63 4.63 0 0 0-.39 1.14 4.77 4.77 0 0 0-1.14.38 4.2 4.2 0 0 0-1 .66 3.88 3.88 0 0 0 1 .66 4.24 4.24 0 0 0 1.14.4zM65.42 46.1a4.24 4.24 0 0 0 .38 1.14 3.66 3.66 0 0 0 .66 1 4 4 0 0 0 .66-1 4.24 4.24 0 0 0 .38-1.14 4.24 4.24 0 0 0 1.14-.38 3.88 3.88 0 0 0 1-.66 4.2 4.2 0 0 0-1-.66 4.37 4.37 0 0 0-1.14-.4 5.08 5.08 0 0 0-.38-1.14 4.2 4.2 0 0 0-.66-1 3.88 3.88 0 0 0-.66 1 4.24 4.24 0 0 0-.38 1.14 4.63 4.63 0 0 0-1.14.38 4 4 0 0 0-1 .66 3.66 3.66 0 0 0 1 .66 4.24 4.24 0 0 0 1.14.4zM65.42 60.58a4.24 4.24 0 0 0 .38 1.14 3.88 3.88 0 0 0 .66 1 4.2 4.2 0 0 0 .66-1 4.63 4.63 0 0 0 .38-1.14 4.24 4.24 0 0 0 1.14-.38 3.88 3.88 0 0 0 1-.66 3.88 3.88 0 0 0-1-.66 4.37 4.37 0 0 0-1.14-.38 5.08 5.08 0 0 0-.38-1.14 4 4 0 0 0-.66-1 3.66 3.66 0 0 0-.66 1 4.24 4.24 0 0 0-.38 1.14 4.24 4.24 0 0 0-1.14.38 3.66 3.66 0 0 0-1 .66 4 4 0 0 0 1 .66 4.63 4.63 0 0 0 1.14.38zM94.37 60.58a4.63 4.63 0 0 0 .38 1.14 3.88 3.88 0 0 0 .66 1 3.88 3.88 0 0 0 .66-1 4.24 4.24 0 0 0 .38-1.14 4.24 4.24 0 0 0 1.14-.38 3.66 3.66 0 0 0 1-.66 3.66 3.66 0 0 0-1-.66 4.24 4.24 0 0 0-1.14-.38 4.24 4.24 0 0 0-.38-1.14 3.66 3.66 0 0 0-.66-1 3.78 3.78 0 0 0-.65 1 4.63 4.63 0 0 0-.39 1.14 4.37 4.37 0 0 0-1.14.38 3.88 3.88 0 0 0-1 .66 4.2 4.2 0 0 0 1 .66 4.63 4.63 0 0 0 1.14.38zM94.37 75.06a4.77 4.77 0 0 0 .38 1.14 3.88 3.88 0 0 0 .66 1 3.88 3.88 0 0 0 .66-1 4.24 4.24 0 0 0 .38-1.14 4.24 4.24 0 0 0 1.14-.38 3.66 3.66 0 0 0 1-.66 3.66 3.66 0 0 0-1-.66 4.24 4.24 0 0 0-1.14-.36 4.24 4.24 0 0 0-.38-1.14 3.66 3.66 0 0 0-.66-1 3.78 3.78 0 0 0-.65 1 4.63 4.63 0 0 0-.39 1.14 4.37 4.37 0 0 0-1.14.38 3.88 3.88 0 0 0-1 .66 4.2 4.2 0 0 0 1 .66 5.08 5.08 0 0 0 1.14.36zM79.9 75.06a4.37 4.37 0 0 0 .38 1.14 3.88 3.88 0 0 0 .66 1 4.2 4.2 0 0 0 .66-1 4.63 4.63 0 0 0 .4-1.14 4.17 4.17 0 0 0 1.13-.38 3.83 3.83 0 0 0 1-.66 3.83 3.83 0 0 0-1-.66A4.24 4.24 0 0 0 82 73a4.24 4.24 0 0 0-.38-1.14 3.78 3.78 0 0 0-.65-1 3.66 3.66 0 0 0-.66 1A4.24 4.24 0 0 0 79.9 73a4.13 4.13 0 0 0-1.14.38 3.83 3.83 0 0 0-1 .66 4.14 4.14 0 0 0 1 .66 4.92 4.92 0 0 0 1.14.36zM65.42 75.06a4.37 4.37 0 0 0 .38 1.14 3.88 3.88 0 0 0 .66 1 4.2 4.2 0 0 0 .66-1 4.24 4.24 0 0 0 .38-1.14 4.24 4.24 0 0 0 1.14-.38 3.88 3.88 0 0 0 1-.66 3.88 3.88 0 0 0-1-.66A4.37 4.37 0 0 0 67.5 73a5.08 5.08 0 0 0-.38-1.14 4 4 0 0 0-.66-1 3.66 3.66 0 0 0-.66 1 4.24 4.24 0 0 0-.38 1.14 4.24 4.24 0 0 0-1.14.38 3.66 3.66 0 0 0-1 .66 4 4 0 0 0 1 .66 5.08 5.08 0 0 0 1.14.36z"/><path class="cls-5" d="M141.58 95.85a17.53 17.53 0 0 1-6.27-5.26 34.21 34.21 0 0 1-3.38-9.74 1.34 1.34 0 0 0-.73-1.08.53.53 0 0 0-.24-.06c-.42 0-.83.37-1 1.14A33.51 33.51 0 0 1 126.35 91a17.94 17.94 0 0 1-6 4.85 1.46 1.46 0 0 0-.7 1.13 2.33 2.33 0 0 0 0 .37 1.66 1.66 0 0 0 .74 1.53 17.67 17.67 0 0 1 6.54 5.62 37.41 37.41 0 0 1 3.11 9.38 1.36 1.36 0 0 0 .73 1.08.62.62 0 0 0 .5 0 1.34 1.34 0 0 0 .73-1.08 34.21 34.21 0 0 1 3.38-9.74 17.53 17.53 0 0 1 6.27-5.26 1.46 1.46 0 0 0 .7-1.13 2.49 2.49 0 0 0 0-.77 1.46 1.46 0 0 0-.77-1.13zM36.87 88.26a12 12 0 0 1-4.3-3.6A23.73 23.73 0 0 1 30.25 78a.94.94 0 0 0-.5-.74.53.53 0 0 0-.17 0c-.28 0-.57.26-.67.78a23.11 23.11 0 0 1-2.49 7 12.19 12.19 0 0 1-4.14 3.32 1 1 0 0 0-.48.78 2.11 2.11 0 0 0 0 .26 1.11 1.11 0 0 0 .5 1 12 12 0 0 1 4.49 3.86 25.94 25.94 0 0 1 2.14 6.43.94.94 0 0 0 .5.75.5.5 0 0 0 .34 0 1 1 0 0 0 .5-.75 23.77 23.77 0 0 1 2.3-6.69 12.08 12.08 0 0 1 4.3-3.61 1 1 0 0 0 .48-.77 1.57 1.57 0 0 0 0-.53 1 1 0 0 0-.48-.83zM104 27.5a9 9 0 0 1-3.2-2.69 17.68 17.68 0 0 1-1.74-5 .66.66 0 0 0-.37-.55.27.27 0 0 0-.12 0c-.21 0-.43.19-.5.58A17.21 17.21 0 0 1 96.23 25a9.25 9.25 0 0 1-3.08 2.48.73.73 0 0 0-.36.57 1.36 1.36 0 0 0 0 .2.85.85 0 0 0 .38.78 9 9 0 0 1 3.34 2.87 19.45 19.45 0 0 1 1.6 4.8.66.66 0 0 0 .37.55.28.28 0 0 0 .25 0 .66.66 0 0 0 .37-.55 17.5 17.5 0 0 1 1.74-5 8.86 8.86 0 0 1 3.2-2.69.76.76 0 0 0 .36-.58 1.34 1.34 0 0 0 0-.4.73.73 0 0 0-.4-.53z"/></g></g></svg>