<svg xmlns="http://www.w3.org/2000/svg" viewBox="0 0 160 160"><defs><style>.cls-3{fill:#fff}</style></defs><g id="Слой_2" data-name="Слой 2"><g id="_3._профессионализм" data-name="3. профессионализм"><circle cx="80" cy="80" r="80" fill="#d5c29f"/><circle cx="61.42" cy="62.75" r="36.52" fill="#bd5a90"/><path class="cls-3" d="M34.8 62.22c0-.42.07-.84.11-1.26a24.67 24.67 0 0 1 1.27-6.07A28.19 28.19 0 0 1 42.87 44a19.72 19.72 0 0 1 7.94-5.06c.39-.13.8-.21 1.2-.33.23-.06.32 0 .39.23 1 3.46 2.1 6.91 3.13 10.37q2.88 9.69 5.73 19.39c0 .09.05.17.1.32.06-.16.1-.25.13-.34Q64.74 57.85 68 47.15c.85-2.79 1.76-5.56 2.63-8.35.06-.21.13-.25.34-.19a19.05 19.05 0 0 1 5.72 2.81 26.75 26.75 0 0 1 8.41 9.64 25.14 25.14 0 0 1 2.61 7.7 21.71 21.71 0 0 1 .18 6 33.47 33.47 0 0 1-4.18 13 13.1 13.1 0 0 1-2.8 3.57 1.28 1.28 0 0 1-.92.34H69.43l1.54-1a31.35 31.35 0 0 0 7.09-6.51 22.08 22.08 0 0 0 4.37-9.14 20 20 0 0 0 .4-5.88 20.58 20.58 0 0 0-2.3-8.14 13.67 13.67 0 0 0-3.65-4.52 5.27 5.27 0 0 0-2.31-1.1 2.55 2.55 0 0 0-2.1.45 1.09 1.09 0 0 0-.34.5Q69 56.19 66 66.07q-2.23 7.17-4.48 14.34c0 .07 0 .14-.09.29a9.64 9.64 0 0 1-.16-.43c-1.12-3.54-2.26-7.08-3.38-10.63q-3.6-11.4-7.19-22.82a2.45 2.45 0 0 0-1.91-1.45 3.68 3.68 0 0 0-2.14.61 10.25 10.25 0 0 0-3.06 3.16 20.44 20.44 0 0 0-3.09 8.15 21.6 21.6 0 0 0-.28 4.71 20.94 20.94 0 0 0 2.05 7.83A24.77 24.77 0 0 0 50.08 79c1.05.78 2.18 1.45 3.27 2.18a3.55 3.55 0 0 1 .6.44H42.74a.74.74 0 0 1-.56-.21A19.73 19.73 0 0 1 38 75.88a27.56 27.56 0 0 1-2.75-8.17c-.21-1.24-.28-2.51-.41-3.77v-.26z"/><rect x="67.57" y="66.05" width="60.75" height="60.75" rx="7.84" ry="7.84" fill="#804d72"/><path class="cls-3" d="M97.29 100.71h-5.6V112a3.71 3.71 0 0 1-.81 2.7 3.44 3.44 0 0 1-2.54.8c-1.65 0-2.47-.89-2.47-2.68V80a3 3 0 0 1 .55-2.09 2.37 2.37 0 0 1 1.82-.59h11.09a18.9 18.9 0 0 1 2.49.23 17.65 17.65 0 0 1 2.74.64 12.91 12.91 0 0 1 2.84 1.32 8.78 8.78 0 0 1 3.16 3.27 9.93 9.93 0 0 1 1 2.51 13.34 13.34 0 0 1 .34 3.17 12.85 12.85 0 0 1-.89 4.8 10.57 10.57 0 0 1-2.71 3.89 13 13 0 0 1-4.56 2.6 19.64 19.64 0 0 1-6.45.96zm-.05-20.56h-5.55v17.72h5.55a8.38 8.38 0 0 0 6.29-2.29q2.23-2.28 2.24-7.11a12.5 12.5 0 0 0-.47-3.57 6.36 6.36 0 0 0-1.5-2.61 6.46 6.46 0 0 0-2.65-1.6 12.43 12.43 0 0 0-3.91-.54z"/></g></g></svg>