<svg xmlns="http://www.w3.org/2000/svg" viewBox="0 0 160 160"><defs><style>.cls-1{fill:#d5c29f}.cls-2{fill:#bd5a90}.cls-3{fill:#804d72}.cls-4{fill:#fff}.cls-5{fill:#e5ddcd}</style></defs><g id="Слой_2" data-name="Слой 2"><g id="_3._профессионализм" data-name="3. профессионализм"><circle class="cls-1" cx="80" cy="80" r="80"/><path class="cls-2" d="M84.66 124.05c0 2.3 2.27 4.18 5.09 4.18h33.57c2.8 0 5.08-1.88 5.08-4.18v-20H84.66z"/><path class="cls-3" d="M114.7 59.6a2.78 2.78 0 0 0 2.52-2.76v-5.56a2.8 2.8 0 0 0-2.8-2.8H98.63a2.8 2.8 0 0 0-2.8 2.8v5.56a2.79 2.79 0 0 0 2.8 2.79h16.07z"/><path class="cls-4" d="M84.66 66.05h43.74v38.05H84.66z"/><path class="cls-2" d="M128.4 62.08c0-4.78-2.59-9.37-7.12-12.59-1.13-.81-2.14-1.41-3-2-2.33-1.39-3.38-2-3.53-4.33H98.76c-.16 2.2-1.15 2.79-3.48 4.1-.92.53-2 1.12-3.15 1.92-4.75 3.24-7.47 7.92-7.47 12.85v4h43.74z"/><path class="cls-1" d="M100.26 102.65h-.34a3.54 3.54 0 0 1-1.75-.64 4.21 4.21 0 0 1-1.72-2.61 4.68 4.68 0 0 1-.08-1.24 5 5 0 0 1 .28-1.43 6.8 6.8 0 0 1 1.09-2 8.58 8.58 0 0 1 1.2-1.28 9.85 9.85 0 0 0 1.15-1.18c.45-.54.85-1.1 1.25-1.67s.7-1 1.07-1.49a9 9 0 0 1 .91-1 4.61 4.61 0 0 1 1.41-1 3.59 3.59 0 0 1 1.26-.26 5.53 5.53 0 0 1 1.46.15 4.2 4.2 0 0 1 1.93 1 7 7 0 0 1 1 1.19c.32.45.61.91.9 1.37s.69 1 1.07 1.51a11.49 11.49 0 0 0 1.28 1.33 9 9 0 0 1 1.48 1.6 6.91 6.91 0 0 1 .86 1.69 4.79 4.79 0 0 1 .29 1.45 4.13 4.13 0 0 1-.42 2.16 4.18 4.18 0 0 1-1.35 1.54 4 4 0 0 1-1.39.65 3.41 3.41 0 0 1-.54.1h-.84a6.73 6.73 0 0 1-1.18-.18c-.66-.16-1.3-.36-2-.52a12.35 12.35 0 0 0-1.61-.3 7.08 7.08 0 0 0-1.13 0 5.28 5.28 0 0 0-.89.11c-.59.11-1.16.27-1.73.43s-1.21.33-1.83.44a4 4 0 0 1-.77.07h-.15a.74.74 0 0 1-.17.01zM111.78 76.62a2.8 2.8 0 0 1 2 1.2 4.27 4.27 0 0 1 .69 1.54 5.53 5.53 0 0 1 .14 1.46 6.2 6.2 0 0 1-.61 2.58 5.64 5.64 0 0 1-1.07 1.52 3.84 3.84 0 0 1-1.38.9 2.79 2.79 0 0 1-1.14.19 2.69 2.69 0 0 1-1.75-.78 3.81 3.81 0 0 1-.9-1.44 5 5 0 0 1-.27-1.16 5.67 5.67 0 0 1 0-.82 6.07 6.07 0 0 1 .34-1.89 5.85 5.85 0 0 1 1-1.79A4.62 4.62 0 0 1 110 77a3.45 3.45 0 0 1 1.2-.39h.48s.08 0 .1.01zM92.37 86.65a3.46 3.46 0 0 1 .8-2.06 2.39 2.39 0 0 1 1.39-.81 2.73 2.73 0 0 1 1.33.08 3.58 3.58 0 0 1 1.34.76 5 5 0 0 1 1.36 1.92 5.12 5.12 0 0 1 .33 1.22 4.07 4.07 0 0 1 0 .61 4.45 4.45 0 0 1-.12 1.15 3.28 3.28 0 0 1-.69 1.35 2.48 2.48 0 0 1-1.48.83 2.78 2.78 0 0 1-1.28-.11 3.73 3.73 0 0 1-1.47-.9 4.82 4.82 0 0 1-1-1.36 5.41 5.41 0 0 1-.51-1.58v-.29-.14-.43-.11c0-.04-.02-.1 0-.13zM98.28 80.87a5.39 5.39 0 0 1 .34-2 3.79 3.79 0 0 1 .77-1.26 2.77 2.77 0 0 1 1.34-.83 2.64 2.64 0 0 1 1.57.09 3.65 3.65 0 0 1 1.2.74 5.18 5.18 0 0 1 1.25 1.85 6.65 6.65 0 0 1 .38 1.39 7.35 7.35 0 0 1 .07.82 5.1 5.1 0 0 1-.07 1 4.58 4.58 0 0 1-.79 2 3 3 0 0 1-1 .88 2.53 2.53 0 0 1-1.43.31 2.85 2.85 0 0 1-1.27-.42 4.16 4.16 0 0 1-1.28-1.19 5.68 5.68 0 0 1-.88-1.88 6.31 6.31 0 0 1-.19-1.14c0-.12-.01-.23-.01-.36zM120.72 87v.08a5 5 0 0 1-.51 2 5.37 5.37 0 0 1-.89 1.32 4.34 4.34 0 0 1-1.68 1.13 3.13 3.13 0 0 1-1.21.19 2.46 2.46 0 0 1-1.61-.67 3 3 0 0 1-.78-1.25 3.75 3.75 0 0 1-.18-1.33 5.14 5.14 0 0 1 .88-2.73 4.74 4.74 0 0 1 2.33-1.85 2.93 2.93 0 0 1 1.14-.14 2.5 2.5 0 0 1 1.57.68 3 3 0 0 1 .8 1.35 3.59 3.59 0 0 1 .14.87V87z"/><path class="cls-2" d="M72.07 40.48v-7.21a1.21 1.21 0 0 0-1.21-1.2H34.73a1.19 1.19 0 0 0-.85.35 1.17 1.17 0 0 0-.35.85v7.52H72z"/><path class="cls-5" d="M39.54 116.32V127a1.2 1.2 0 0 0 1.2 1.2h24.09A1.2 1.2 0 0 0 66 127V116.13H39.53z"/><path class="cls-3" d="M33.55 40.79l5.98 75.37h26.54l5.97-75.37H33.55z"/><path class="cls-4" d="M46.9 128.23a5.9 5.9 0 1 1 11.79 0"/><path class="cls-5" d="M63.59 51.16c0-.53 1.18-1.31 1.21-2.21a2.78 2.78 0 0 0-2.73-2.9 2.89 2.89 0 0 0-2.73 1.82 1 1 0 0 1-.88.69 38.52 38.52 0 0 1-5.6.22 32.55 32.55 0 0 1-5.57-.56 1.06 1.06 0 0 1-.84-.74 2.82 2.82 0 0 0-5.52.74C40.9 49.13 42 50 42 50.5c0 .53-1.19 1.3-1.22 2.21a2.8 2.8 0 0 0 2.73 2.9 2.89 2.89 0 0 0 2.74-1.83 1 1 0 0 1 .88-.69 37.3 37.3 0 0 1 5.55-.21 32.21 32.21 0 0 1 5.57.55 1.11 1.11 0 0 1 .84.74 2.82 2.82 0 0 0 5.52-.74c.07-1-1.05-1.84-1-2.27z"/><rect class="cls-3" x="96.36" y="32.07" width="20.52" height="11.14" rx="2.35" ry="2.35"/></g></g></svg>