<svg xmlns="http://www.w3.org/2000/svg" viewBox="0 0 289.3 70.8" preserveAspectRatio="none"><path d="M223.8 70.8H35.4C15.8 70.8 0 54.9 0 35.4 0 15.8 15.8 0 35.4 0h188.4c10.4 0 20.7 2.9 29.5 8.4l32.1 19.9c5.2 3.2 5.2 10.8 0 14.1l-32.1 19.9c-8.8 5.6-19.1 8.5-29.5 8.5z" fill="#e1dbcb"/><path d="M285.4 32.6l-32.1 19.9c-8.9 5.5-19.1 8.4-29.5 8.4H35.4c-17.9 0-32.6-13.3-35-30.5-.3 1.7-.4 3.3-.4 5 0 19.5 15.8 35.4 35.4 35.4h188.4c10.4 0 20.7-2.9 29.5-8.4l32.1-19.9c4.3-2.7 5-8.2 2.3-11.9-.6.7-1.3 1.4-2.3 2z" fill="#a79880"/></svg>