<svg xmlns="http://www.w3.org/2000/svg" viewBox="0 0 112.77 94.4"><defs><style>.cls-1{fill:#804d72}.cls-2{fill:#a2547e}</style></defs><g id="Слой_2" data-name="Слой 2"><g id="_4._Наши_мастера" data-name="4. Наши мастера"><path class="cls-1" d="M57.33 47.7C48.38 76 50.8 94.4 50.8 94.4l-25-12.19s0-15.32 8.62-40.57"/><path class="cls-2" d="M53.58 28.37S51.32 3.7 11.51 0c-25.89 38.08 0 71.2 0 71.2s30.42 0 46.17-29.34z"/><path class="cls-1" d="M55.53 47.7c9 28.25 6.53 46.7 6.53 46.7L87 82.21s0-15.32-8.62-40.57z"/><path class="cls-2" d="M59.19 28.37S61.46 3.7 101.26 0c25.9 38.08 0 71.2 0 71.2s-30.42 0-46.17-29.34z"/><circle class="cls-1" cx="57.68" cy="34.38" r="16.09"/></g></g></svg>