<svg xmlns="http://www.w3.org/2000/svg" viewBox="0 0 41.93 41.93"><defs><style>.cls-1{fill:#af9a80;}.cls-2{fill:#d5c29f;}.cls-3{fill:#8d7c60;}</style></defs><title>Ресурс 21</title><g id="Слой_2" data-name="Слой 2"><g id="_12._вопросы_и_контакты" data-name="12. вопросы и контакты"><path class="cls-1" d="M34.23,4.74A21,21,0,0,1,4.74,34.23,21,21,0,1,0,34.23,4.74Z"/><path class="cls-2" d="M39,18A20.86,20.86,0,0,0,34.23,4.74,21,21,0,0,0,4.74,34.23,21,21,0,0,0,39,18Z"/><path class="cls-3" d="M15.62,15.19a1.16,1.16,0,0,1-.92-.34,1.53,1.53,0,0,1-.31-1.08V12.13a1.5,1.5,0,0,1,.17-.76,1.63,1.63,0,0,1,.55-.52,9.26,9.26,0,0,1,2.4-1.11,9.13,9.13,0,0,1,2.55-.36,7.93,7.93,0,0,1,2.73.41,4.75,4.75,0,0,1,1.74,1.05,3.83,3.83,0,0,1,.93,1.38,4.36,4.36,0,0,1,.27,1.46,4.89,4.89,0,0,1-.09,1,5.65,5.65,0,0,1-.26.88,3.91,3.91,0,0,1-.36.74,3.46,3.46,0,0,1-.41.58c-.12.14-.28.32-.49.54l-.67.71-.66.71c-.21.23-.37.42-.49.56a11.35,11.35,0,0,0-.7.94,6.46,6.46,0,0,0-.49.88,4.77,4.77,0,0,0-.28.93,5.93,5.93,0,0,0-.09,1.09.65.65,0,0,1-.41.59,2,2,0,0,1-.94.21,1.78,1.78,0,0,1-.87-.2.65.65,0,0,1-.35-.6,7.75,7.75,0,0,1,.12-1.44,6.78,6.78,0,0,1,.35-1.18,7.66,7.66,0,0,1,.54-1.07c.21-.34.45-.71.72-1.1a8,8,0,0,1,.9-1.13,11.48,11.48,0,0,0,.85-1,5.22,5.22,0,0,0,.63-1.14,4.2,4.2,0,0,0,.25-1.52,2.68,2.68,0,0,0-.76-2.15,3.43,3.43,0,0,0-2.25-.63,6.17,6.17,0,0,0-2.4.59v1.94a2.27,2.27,0,0,1-.35,1.43A1.43,1.43,0,0,1,15.62,15.19Zm1.93,12.32a1.84,1.84,0,0,1,.16-.75,2,2,0,0,1,.42-.64,2,2,0,0,1,.61-.43,1.8,1.8,0,0,1,.76-.17,1.93,1.93,0,0,1,1.39.6,2.13,2.13,0,0,1,.43.63,2,2,0,0,1,.15.76,1.85,1.85,0,0,1-.15.74,2.06,2.06,0,0,1-1.06,1.06,2,2,0,0,1-.76.15,1.79,1.79,0,0,1-.76-.16,2.26,2.26,0,0,1-.62-.44,1.89,1.89,0,0,1-.42-.62A1.83,1.83,0,0,1,17.55,27.51Z"/></g></g></svg>