<?xml version="1.0" encoding="utf-8"?>
<!-- Generator: Adobe Illustrator 22.0.1, SVG Export Plug-In . SVG Version: 6.00 Build 0)  -->
<svg version="1.1" id="Слой_1" xmlns="http://www.w3.org/2000/svg" xmlns:xlink="http://www.w3.org/1999/xlink" x="0px" y="0px"
	 viewBox="0 0 219.9 60.1" style="enable-background:new 0 0 219.9 60.1;" xml:space="preserve">
<style type="text/css">
	.st0{fill:#E5DDCD;}
</style>
<g>
	<path class="st0" d="M949.5,61.7l14-61.4c-53.4,0-53.4,50-106.7,50c-53.4,0-53.4-50-106.7-50c-53.4,0-53.4,50-106.7,50
		c-53.4,0-53.4-50-106.7-50c-53.4,0-53.4,50-106.7,50c-53.4,0-53.4-50-106.7-50c-53.4,0-53.4,50-106.7,50c-53.4,0-53.4-50-106.7-50
		c-53.4,0-53.4,50-106.7,50c-53.4,0-53.4-50-106.7-50c-53.4,0-53.4,50-106.7,50c-53.4,0-53.4-50-106.7-50c-53.4,0-53.4,50-106.7,50
		c-53.4,0-53.4-50-106.7-50c-53.4,0-53.4,50-106.7,50c-53.4,0-53.4-50-106.7-50c-53.4,0-53.4,50-106.7,50c-53.4,0-53.4-50-106.7-50
		v58.4L949.5,61.7z"/>
</g>
</svg>
