<?xml version="1.0" encoding="utf-8"?>
<!-- Generator: Adobe Illustrator 22.0.1, SVG Export Plug-In . SVG Version: 6.00 Build 0)  -->
<svg version="1.1" id="Слой_1" xmlns="http://www.w3.org/2000/svg" xmlns:xlink="http://www.w3.org/1999/xlink" x="0px" y="0px"
	 viewBox="0 0 219.9 60.1" style="enable-background:new 0 0 219.9 60.1;" xml:space="preserve">
<style type="text/css">
	.st0{fill:#D9C6A3;}
	.st1{fill:none;stroke:#FFFFFF;stroke-width:3;stroke-linecap:round;stroke-miterlimit:10;stroke-dasharray:0,10;}
</style>
<g>
	<path class="st0" d="M948.7,61.4l14-61.4C909.3,0,909.3,50,856,50c-53.4,0-53.4-50-106.7-50c-53.4,0-53.4,50-106.7,50
		c-53.4,0-53.4-50-106.7-50c-53.4,0-53.4,50-106.7,50c-53.4,0-53.4-50-106.7-50c-53.4,0-53.4,50-106.7,50c-53.4,0-53.4-50-106.7-50
		C55.7,0,55.7,50,2.4,50C-51,50-51,0-104.3,0c-53.4,0-53.4,50-106.7,50c-53.4,0-53.4-50-106.7-50c-53.4,0-53.4,50-106.7,50
		c-53.4,0-53.4-50-106.7-50c-53.4,0-53.4,50-106.7,50c-53.4,0-53.4-50-106.7-50c-53.4,0-53.4,50-106.7,50c-53.4,0-53.4-50-106.7-50
		v58.4L948.7,61.4z"/>
	<path class="st1" d="M962.7,8.7c-53.4,0-53.4,50-106.7,50c-53.4,0-53.4-50-106.7-50c-53.4,0-53.4,50-106.7,50
		c-53.4,0-53.4-50-106.7-50c-53.4,0-53.4,50-106.7,50c-53.4,0-53.4-50-106.7-50c-53.4,0-53.4,50-106.7,50c-53.4,0-53.4-50-106.7-50
		c-53.4,0-53.4,50-106.7,50c-53.4,0-53.4-50-106.7-50c-53.4,0-53.4,50-106.7,50c-53.4,0-53.4-50-106.7-50c-53.4,0-53.4,50-106.7,50
		c-53.4,0-53.4-50-106.7-50c-53.4,0-53.4,50-106.7,50c-53.4,0-53.4-50-106.7-50c-53.4,0-53.4,50-106.7,50c-53.4,0-53.4-50-106.7-50"
		/>
</g>
</svg>
