<svg xmlns="http://www.w3.org/2000/svg" viewBox="0 0 160 160"><defs><style>.cls-2{fill:#804d72}.cls-3{fill:#bd5a90}.cls-4{fill:#e5ddcd}</style></defs><g id="Слой_2" data-name="Слой 2"><g id="_6._цены" data-name="6. цены"><circle cx="80" cy="80" r="80" fill="#fff"/><path class="cls-2" d="M50 71.08a15.87 15.87 0 0 1-.49 13.63 47 47 0 0 0-5.58 22.79 48.72 48.72 0 0 0 4 19.44 8.5 8.5 0 0 0 7.8 5h41.8a8.63 8.63 0 0 0 7.8-5 49.44 49.44 0 0 0-1.61-42.23 15.1 15.1 0 0 1-.62-13.63 18.76 18.76 0 0 0 1-3.09 23 23 0 0 1-7.34-2.85 18.15 18.15 0 0 0-19.53 0 20.19 20.19 0 0 1-11.3 3.16 20.19 20.19 0 0 1-11.27-3.16 18.42 18.42 0 0 0-6-2.39 17.19 17.19 0 0 0-.09 1.77A17.39 17.39 0 0 0 50 71.08z"/><path class="cls-3" d="M42 35a7.56 7.56 0 1 0 7.55 7.55A7.5 7.5 0 0 0 42 35zm0 12.63a5.08 5.08 0 1 1 5.08-5.08A5 5 0 0 1 42 47.67z"/><path class="cls-3" d="M47.12 42.59A5.08 5.08 0 1 1 42 37.51a5 5 0 0 1 5.12 5.08z"/><path class="cls-4" d="M39.68 43.83a1.17 1.17 0 0 0 1.24-1.24A1.11 1.11 0 0 1 42 41.48 1.24 1.24 0 0 0 42 39a3.59 3.59 0 0 0-3.59 3.59 1.24 1.24 0 0 0 1.27 1.24z"/><path class="cls-3" d="M125.52 87.18a7.55 7.55 0 1 1-7.52-7.55 7.5 7.5 0 0 1 7.52 7.55z"/><path class="cls-4" d="M118 83.72a3.59 3.59 0 0 0-3.59 3.59 1.24 1.24 0 1 0 2.47 0 1.12 1.12 0 0 1 1.12-1.12 1.24 1.24 0 1 0 0-2.47z"/><circle class="cls-3" cx="110.53" cy="42.59" r="10.53"/><path class="cls-4" d="M105.33 41.85a1.24 1.24 0 0 0 2.48 0 2.75 2.75 0 0 1 2.73-2.73 1.24 1.24 0 0 0 0-2.47 5.24 5.24 0 0 0-5.21 5.2z"/><path class="cls-3" d="M122.79 64.64a4.83 4.83 0 1 1-9.66 0 5 5 0 0 1 4.87-4.83 4.83 4.83 0 0 1 4.79 4.83zM88.12 81a4.84 4.84 0 0 1-4.83 4.84A4.77 4.77 0 0 1 78.45 81a4.84 4.84 0 0 1 9.67 0zM44.52 74.55a4.83 4.83 0 1 1-4.84-4.83 5 5 0 0 1 4.84 4.83z"/><path class="cls-2" d="M86.75 40.24V29.33a1.17 1.17 0 0 0-1.23-1.23H67.06a1.17 1.17 0 0 0-1.24 1.23v10.91a1.15 1.15 0 0 0 .9 1.18h19.13a1.15 1.15 0 0 0 .9-1.18z"/><path d="M85.14 44.2v-2.73h.38a1.75 1.75 0 0 0 .33 0H66.72a1.74 1.74 0 0 0 .34 0h.5v2.86c-10.67 2.78-18 9.9-18.87 18.42a18.42 18.42 0 0 1 6 2.39 20.19 20.19 0 0 0 11.24 3.16 20.19 20.19 0 0 0 11.27-3.16 18.15 18.15 0 0 1 19.53 0 23 23 0 0 0 7.34 2.86 16.19 16.19 0 0 0 .39-3.47c0-9.3-7.92-17.48-19.32-20.33z" fill="#d5c29f"/></g></g></svg>