<svg xmlns="http://www.w3.org/2000/svg" viewBox="0 0 160 160"><defs><style>.cls-2{fill:#d5c29f}.cls-4{fill:none;stroke:#bd5a90;stroke-linecap:round;stroke-miterlimit:10;stroke-width:2.3px}</style></defs><g id="Слой_2" data-name="Слой 2"><g id="_6._цены" data-name="6. цены"><circle cx="80" cy="80" r="80" fill="#fff"/><path class="cls-2" d="M110 114.42H98.51v-9.07H110a17.87 17.87 0 1 0 0-35.73H55.64a19.76 19.76 0 1 1 0-39.51h11.87v9.07H55.64a10.69 10.69 0 1 0 0 21.38H110a26.93 26.93 0 0 1 0 53.86z"/><path d="M76.46 40.67h-8.13a.82.82 0 0 1-.81-.82V29.43a.81.81 0 0 1 .81-.81h8.17a1.67 1.67 0 0 1 .44.06l8.21 2.39a.82.82 0 0 1 .58.78v5.09a.82.82 0 0 1-.54.77L77 40.58a1.48 1.48 0 0 1-.54.09z" fill="#af9a80"/><path class="cls-4" d="M88.5 33.43h23.68a5.78 5.78 0 0 0 5.82-5.78 5.77 5.77 0 0 0-5.78-5.77M99.59 37.74h23.68a5.78 5.78 0 0 1 5.78 5.78 5.78 5.78 0 0 1-5.78 5.78"/><path d="M60.84 95.19v-8.53a6.88 6.88 0 0 1 6.88-6.88h19.57a6.88 6.88 0 0 1 6.88 6.88v9.7" stroke-width="7" fill="none" stroke="#bd5a90" stroke-linecap="round" stroke-miterlimit="10"/><path d="M118.87 108.49c0 10.26-4.82 18.58-10.77 18.58H40.41V89.91h67.69c5.95 0 10.77 8.32 10.77 18.58z" fill="#804d72"/><ellipse cx="40.41" cy="108.49" rx="10.77" ry="18.58" fill="#bd5a90"/><path class="cls-2" d="M60.84 127.07a4.83 4.83 0 1 1-9.66 0 5 5 0 0 1 4.82-4.82 4.82 4.82 0 0 1 4.84 4.82zM103.83 127.07a4.83 4.83 0 1 1-9.66 0 5 5 0 0 1 4.83-4.82 4.82 4.82 0 0 1 4.83 4.82z"/></g></g></svg>