<svg xmlns="http://www.w3.org/2000/svg" viewBox="0 0 160 160"><g data-name="Слой 2"><g data-name="6. цены"><circle cx="80" cy="80" r="80" fill="#fff"/><path d="M130.16 109.87l-9.74 9.74a3.77 3.77 0 0 1-5.17 0l-.3-.31L128 106.22a2 2 0 0 0-2.89-2.89l-13.09 13.08-3-3 13.09-13.09a2 2 0 0 0-2.9-2.89l-13.08 13.09-3-3 13.08-13.08a2 2 0 0 0-2.89-2.89l-13.08 13.08-3-3 13.09-13.08a2 2 0 0 0-2.89-2.89L94.25 98.61l-3-3 13.05-13.13a2.2 2.2 0 0 0 .45-2h-.18a2 2 0 0 0-.5-1 2.12 2.12 0 0 0-2.89 0l-13 13-2.89-2.89-.16-.15 13-13a2 2 0 0 0-2.89-2.89l-13 13-3.06-3 13-13a2 2 0 0 0-2.9-2.89l-13 13-3-3 13-13a2 2 0 0 0-2.89-2.89l-13 13.05-3-3 12.95-13.15a2.13 2.13 0 0 0 0-2.9 2.1 2.1 0 0 0-2.89 0L64.33 68.79l-3-3 13.03-13.11a2 2 0 0 0-2.9-2.89L58.38 62.88l-3-3.05 13.04-13.08a2 2 0 0 0-2.89-2.89L52.45 56.94l-3.05-3 13.09-13.12a2 2 0 0 0-2.89-2.9L46.51 51l-3-3 13.05-13.12a2 2 0 0 0-2.9-2.88L40.58 45.08a3.78 3.78 0 0 1 0-5.18l9.89-9.58a4.87 4.87 0 0 0 0-7l-17.65 17.5a6.32 6.32 0 0 0 0 9.12L63 80.22h.06L86.73 104l-8.3-8.28 32.1 32.1a6.33 6.33 0 0 0 9.13 0l17.65-17.95a5 5 0 0 0-7.15 0z" fill="#bd5a90"/><path d="M84.76 75l8.85-50.59a1.9 1.9 0 0 0-3.23-1.65 45.35 45.35 0 0 0-12 23.36L76 59.47 75.22 64s-1.38 10.25-1.62 12.49l-26.74 3.65a3.69 3.69 0 0 0-.13-1.14c-.93-7-7.95-11.93-15.63-10.87S18.11 75.77 19 82.79s8 11.92 15.63 10.86A14.77 14.77 0 0 0 45 87.16c10-3.86 18.89-1.84 28.3-1v9.36c0 1.11.07 2.22.07 3.33a37.64 37.64 0 0 1-2.85 15.35 14.53 14.53 0 0 0-7 10.07c-1.33 7.55 3.18 14.84 10.2 16.16s13.82-3.85 15.28-11.54-3.18-14.83-10.2-16.16a3.69 3.69 0 0 0-1.19-.13L80 99.75l2-11.16.35-2.22c.93 0 1.86-.14 2.8-.26l5.15-.7 5.44-.75 17.5-2.39a45.08 45.08 0 0 0 23.81-10.92 1.9 1.9 0 0 0-1.52-3.3zM33.88 88.62c-4.64.66-8.88-2.39-9.41-6.63s2.65-8.21 7.42-8.87 8.88 2.38 9.41 6.62-2.65 8.26-7.42 8.88zm43.85 29.28c4.24.79 7 5.17 6.23 9.8a8.06 8.06 0 0 1-9.27 6.89c-4.38-.79-7-5.17-6.23-9.8a8.41 8.41 0 0 1 9.27-6.89z" fill="#804d72"/><circle cx="78.83" cy="80.01" r="3.04" fill="#d5c29f"/></g></g></svg>