<svg xmlns="http://www.w3.org/2000/svg" viewBox="0 0 160 160"><defs><style>.cls-2{fill:#e5ddcd}.cls-4{fill:#bd5a90}.cls-5{fill:#804d72}</style></defs><g id="Слой_2" data-name="Слой 2"><g id="_6._цены" data-name="6. цены"><circle cx="80" cy="80" r="80" fill="#fff"/><ellipse id="_Контур_" data-name="&lt;Контур&gt;" class="cls-2" cx="57.82" cy="59.36" rx="3.99" ry="16.02"/><ellipse id="_Контур_2" data-name="&lt;Контур&gt;" class="cls-2" cx="71.9" cy="52.77" rx="3.99" ry="16.02"/><ellipse id="_Контур_3" data-name="&lt;Контур&gt;" class="cls-2" cx="88.13" cy="52.77" rx="3.99" ry="16.02"/><ellipse id="_Контур_4" data-name="&lt;Контур&gt;" class="cls-2" cx="101.89" cy="59.36" rx="3.99" ry="16.02"/><path d="M79.79 50.74a32 32 0 0 0-31.28 32.68v57.19a73.63 73.63 0 0 0 64.12-.6l-.14-58a32 32 0 0 0-32.7-31.27z" fill="#d5c29f"/><ellipse id="_Контур_5" data-name="&lt;Контур&gt;" class="cls-4" cx="80.58" cy="93.15" rx="17.32" ry="17.84"/><ellipse id="_Контур_6" data-name="&lt;Контур&gt;" class="cls-4" cx="63.25" cy="69.63" rx="4.65" ry="4.79"/><ellipse id="_Контур_7" data-name="&lt;Контур&gt;" class="cls-4" cx="74.37" cy="61.85" rx="4.65" ry="4.79"/><ellipse id="_Контур_8" data-name="&lt;Контур&gt;" class="cls-4" cx="88.13" cy="62.88" rx="4.65" ry="4.79"/><ellipse id="_Контур_9" data-name="&lt;Контур&gt;" class="cls-4" cx="99.34" cy="69.63" rx="4.65" ry="4.79"/><path class="cls-5" d="M77 21.48a12.36 12.36 0 0 1-4.29-2.31 12.21 12.21 0 0 1-2.32-4.29.68.68 0 0 0-.49-.48h-.17a.69.69 0 0 0-.67.5 12 12 0 0 1-2.47 4.47 13 13 0 0 1-4.13 2.13.69.69 0 0 0-.46.5.88.88 0 0 0 0 .16.67.67 0 0 0 .5.67 12.19 12.19 0 0 1 4.47 2.48 13 13 0 0 1 2.13 4.13.68.68 0 0 0 .5.47.65.65 0 0 0 .34 0 .66.66 0 0 0 .49-.47 12.21 12.21 0 0 1 2.32-4.29A12.21 12.21 0 0 1 77 22.81a.68.68 0 0 0 .47-.49.65.65 0 0 0 0-.34.68.68 0 0 0-.47-.5zM119.75 105.79a12 12 0 0 1-4.29-2.31 12.36 12.36 0 0 1-2.31-4.29.68.68 0 0 0-.5-.47.45.45 0 0 0-.16 0 .71.71 0 0 0-.68.5 12 12 0 0 1-2.47 4.47 12.63 12.63 0 0 1-4.13 2.13.69.69 0 0 0-.47.5.51.51 0 0 0 0 .17.7.7 0 0 0 .5.67 12 12 0 0 1 4.47 2.47 12.63 12.63 0 0 1 2.13 4.13.71.71 0 0 0 .5.48 1 1 0 0 0 .34 0 .69.69 0 0 0 .5-.48 12.36 12.36 0 0 1 2.31-4.29 12.36 12.36 0 0 1 4.29-2.31.69.69 0 0 0 .48-.5 1 1 0 0 0 0-.34.71.71 0 0 0-.51-.53zM71.07 117.39a21.83 21.83 0 0 1-8-6.09 37.71 37.71 0 0 1-4.28-11.3 1.59 1.59 0 0 0-.93-1.25.82.82 0 0 0-.31-.07c-.52 0-1 .44-1.25 1.32a37.09 37.09 0 0 1-4.6 11.77 22.74 22.74 0 0 1-7.7 5.62 1.68 1.68 0 0 0-.89 1.31 3.27 3.27 0 0 0 0 .44 1.83 1.83 0 0 0 .89 1.76 22 22 0 0 1 8.32 6.52 40.15 40.15 0 0 1 4 10.87 1.59 1.59 0 0 0 .93 1.25 1 1 0 0 0 .63 0 1.59 1.59 0 0 0 .93-1.25A37.71 37.71 0 0 1 63.09 127a21.85 21.85 0 0 1 8-6.1 1.65 1.65 0 0 0 .89-1.31 2.66 2.66 0 0 0 0-.89 1.68 1.68 0 0 0-.91-1.31zM42.37 68.19a15 15 0 0 1-5.45-3.73 21.77 21.77 0 0 1-3-6.92 1 1 0 0 0-.63-.77.78.78 0 0 0-.21 0 .94.94 0 0 0-.86.81 21.2 21.2 0 0 1-3.15 7.21 15.74 15.74 0 0 1-5.25 3.44 1 1 0 0 0-.61.8 1.15 1.15 0 0 0 0 .26 1.13 1.13 0 0 0 .64 1.09 14.87 14.87 0 0 1 5.69 4A23.28 23.28 0 0 1 32.27 81a1 1 0 0 0 .63.77.82.82 0 0 0 .44 0A1 1 0 0 0 34 81a21.71 21.71 0 0 1 3-6.91 14.73 14.73 0 0 1 5.45-3.73 1 1 0 0 0 .61-.81A1.23 1.23 0 0 0 43 69a1 1 0 0 0-.63-.81zM126.47 40.32a15.12 15.12 0 0 1-5.47-4.59 29.81 29.81 0 0 1-3-8.5 1.2 1.2 0 0 0-.63-.95.54.54 0 0 0-.22-.05c-.36 0-.72.33-.85 1a29.81 29.81 0 0 1-3.16 8.87 15.78 15.78 0 0 1-5.28 4.22 1.29 1.29 0 0 0-.6 1 1.86 1.86 0 0 0 0 .33 1.46 1.46 0 0 0 .64 1.35 15.17 15.17 0 0 1 5.71 4.91 32.26 32.26 0 0 1 2.73 8.19 1.14 1.14 0 0 0 .66.9.56.56 0 0 0 .44 0 1.16 1.16 0 0 0 .63-.94 30 30 0 0 1 3-8.51 15.21 15.21 0 0 1 5.4-4.55 1.26 1.26 0 0 0 .61-1 1.89 1.89 0 0 0 0-.67 1.3 1.3 0 0 0-.61-1.01z"/></g></g></svg>