<svg xmlns="http://www.w3.org/2000/svg" viewBox="0 0 160 160"><defs><style>.cls-2{fill:#e5ddcd}.cls-5{fill:none}.cls-6{fill:#604051}</style></defs><g id="Слой_2" data-name="Слой 2"><g id="_6._цены" data-name="6. цены"><circle cx="80" cy="80" r="80" fill="#fff"/><path class="cls-2" d="M122.68 36.67a15 15 0 0 1-5.36-4.5 29.56 29.56 0 0 1-2.9-8.33 1.17 1.17 0 0 0-.62-.93.78.78 0 0 0-.21 0c-.35 0-.7.32-.84 1a29 29 0 0 1-3.09 8.69 15.4 15.4 0 0 1-5.17 4.14 1.25 1.25 0 0 0-.59 1 1.66 1.66 0 0 0 0 .32 1.38 1.38 0 0 0 .62 1.3 15.08 15.08 0 0 1 5.6 4.81 31.59 31.59 0 0 1 2.66 8 1.18 1.18 0 0 0 .63.93.61.61 0 0 0 .42 0 1.17 1.17 0 0 0 .62-.93 29.56 29.56 0 0 1 2.9-8.33 15 15 0 0 1 5.36-4.5 1.23 1.23 0 0 0 .6-1 2.43 2.43 0 0 0 0-.66 1.23 1.23 0 0 0-.63-1.01z"/><path d="M123.31 75.65a13.09 13.09 0 0 1 .19-2.18h-8.22a15.83 15.83 0 0 1-12.7-6.39L92.83 54a15 15 0 0 0-12-6h-22.3a21 21 0 0 0-19 12.18h15.1a9.44 9.44 0 0 1 9.44 9.44v52.65a3.34 3.34 0 0 0 1.1.18s16.61.08 28 0a22.45 22.45 0 0 1-8-11.52 2.14 2.14 0 0 1 4.08-1.32c3.65 11.24 13 12.31 13.43 12.34a2.1 2.1 0 0 1 1 .38 37.13 37.13 0 0 0 18.9-6.65c.62-.44 1.22-.89 1.82-1.37a37.24 37.24 0 0 0 13.87-25.64 13 13 0 0 1-15-13z" fill="#af9a80"/><path d="M54.63 60.1H39.51c-.23.51-.45 1-.65 1.58l-10.79 29.5a13 13 0 0 0-.41 5.56 31.4 31.4 0 0 0 23.79 27.41l8.55 2.14a3.08 3.08 0 0 0 .8.1 3.26 3.26 0 0 0 2-.7 3.3 3.3 0 0 0 1.26-2.59V69.54a9.44 9.44 0 0 0-9.43-9.44z" fill="#d5c29f"/><path d="M82.26 77.24a3.84 3.84 0 1 1-3.84-3.84 3.84 3.84 0 0 1 3.84 3.84zM94.91 77.24a3.84 3.84 0 1 1-3.83-3.84 3.84 3.84 0 0 1 3.83 3.84z"/><path class="cls-5" d="M78.42 73.4a3.84 3.84 0 1 0 3.84 3.84 3.83 3.83 0 0 0-3.84-3.84zM91.08 73.4a3.84 3.84 0 1 0 3.83 3.84 3.84 3.84 0 0 0-3.83-3.84z"/><path class="cls-6" d="M78.42 81.08a3.84 3.84 0 1 1 3.84-3.84 3.83 3.83 0 0 1-3.84 3.84zM91.08 81.08a3.84 3.84 0 1 1 3.83-3.84 3.84 3.84 0 0 1-3.83 3.84z"/><path d="M89.32 109.57a2.15 2.15 0 1 0-4.08 1.33 22.48 22.48 0 0 0 8 11.52c5.86 0 10.35 0 10.53-.13a2.1 2.1 0 0 0-1-.38c-.42-.04-9.77-1.1-13.45-12.34z" fill="#bd5a90"/><path d="M138.52 76.75a3.28 3.28 0 0 0-3.28-3.28H123.5a13 13 0 0 0 14.84 15.16c.11-1.15.18-2.31.18-3.48z" fill="#804d72"/><path class="cls-2" d="M45 109.71a18.77 18.77 0 0 1-6.72-5.63 37.05 37.05 0 0 1-3.58-10.43 1.45 1.45 0 0 0-.78-1.16.65.65 0 0 0-.26-.06c-.45 0-.89.4-1 1.22a36.4 36.4 0 0 1-3.88 10.87 19.47 19.47 0 0 1-6.47 5.19 1.56 1.56 0 0 0-.74 1.21 2.58 2.58 0 0 0 0 .4 1.77 1.77 0 0 0 .78 1.63 19 19 0 0 1 7 6A39.91 39.91 0 0 1 32.6 129a1.51 1.51 0 0 0 .78 1.16.83.83 0 0 0 .54 0 1.49 1.49 0 0 0 .78-1.16 37 37 0 0 1 3.62-10.44A18.77 18.77 0 0 1 45 113a1.56 1.56 0 0 0 .74-1.21 2.26 2.26 0 0 0 0-.82 1.56 1.56 0 0 0-.74-1.26z"/></g></g></svg>